# Blender v2.69 (sub 0) OBJ File: 'projetVide.blend'
# www.blender.org
mtllib cabinet.mtl
o Cube.001_Cube.002
v -0.400000 7.999996 26.000002
v -0.400000 7.999995 28.000002
v -40.000000 7.999995 28.000002
v -40.000000 7.999996 26.000002
v -0.400000 14.999996 26.000002
v -40.000000 14.999996 26.000002
v -40.000000 14.999995 28.000002
v -0.400000 14.999995 28.000002
v -0.400000 82.999992 26.000013
v -0.400000 75.999992 26.000011
v -40.000000 75.999992 26.000011
v -40.000000 82.999992 26.000013
v -40.000000 75.999992 28.000011
v -40.000000 82.999992 28.000013
v -0.400000 75.999992 28.000011
v -0.400000 82.999992 28.000013
v -40.000000 14.999996 26.000002
v -40.000000 14.999995 28.000002
v -40.000000 75.999992 28.000011
v -40.000000 75.999992 26.000011
v -33.000000 14.999996 26.000002
v -33.000000 75.999992 26.000011
v -33.000000 75.999992 28.000011
v -33.000000 14.999995 28.000002
v -8.000000 14.999996 26.000002
v -8.000000 14.999995 28.000002
v -8.000000 75.999992 28.000011
v -8.000000 75.999992 26.000011
v -0.400000 14.999996 26.000002
v -0.400000 75.999992 26.000011
v -0.400000 75.999992 28.000011
v -0.400000 14.999995 28.000002
v 40.000000 14.999996 26.000002
v 33.000000 14.999996 26.000002
v 33.000000 75.999992 26.000011
v 40.000000 75.999992 26.000011
v 33.000000 75.999992 28.000011
v 40.000000 75.999992 28.000011
v 33.000000 14.999995 28.000002
v 40.000000 14.999995 28.000002
v 8.000000 14.999996 26.000002
v 0.400000 14.999996 26.000002
v 0.400000 75.999992 26.000011
v 8.000000 75.999992 26.000011
v 0.400000 75.999992 28.000011
v 8.000000 75.999992 28.000011
v 0.400000 14.999995 28.000002
v 8.000000 14.999995 28.000002
v 40.000000 75.999992 26.000011
v 40.000000 75.999992 28.000011
v 0.400000 75.999992 28.000011
v 0.400000 75.999992 26.000011
v 40.000000 82.999992 26.000013
v 0.400000 82.999992 26.000013
v 0.400000 82.999992 28.000013
v 40.000000 82.999992 28.000013
v 40.000000 14.999996 26.000002
v 40.000000 7.999996 26.000002
v 0.400000 7.999996 26.000002
v 0.400000 14.999996 26.000002
v 0.400000 7.999995 28.000002
v 0.400000 14.999995 28.000002
v 40.000000 7.999995 28.000002
v 40.000000 14.999995 28.000002
vn 0.000000 -1.000000 0.000000
vn 0.000000 1.000000 0.000000
vn 1.000000 0.000000 0.000000
vn 0.000000 0.000000 1.000000
vn -1.000000 0.000000 0.000000
vn 0.000000 0.000000 -1.000000
vn 0.000000 -1.000000 -0.000001
usemtl grey
s off
f 1//1 2//1 3//1 4//1
f 5//2 6//2 7//2 8//2
f 1//3 5//3 8//3 2//3
f 2//4 8//4 7//4 3//4
f 3//5 7//5 6//5 4//5
f 5//6 1//6 4//6 6//6
f 9//6 10//6 11//6 12//6
f 13//5 14//5 12//5 11//5
f 15//4 16//4 14//4 13//4
f 10//3 9//3 16//3 15//3
f 9//2 12//2 14//2 16//2
f 10//1 15//1 13//1 11//1
f 17//5 18//5 19//5 20//5
f 21//3 22//3 23//3 24//3
f 17//1 21//1 24//1 18//1
f 18//4 24//4 23//4 19//4
f 19//2 23//2 22//2 20//2
f 21//6 17//6 20//6 22//6
f 25//5 26//5 27//5 28//5
f 29//3 30//3 31//3 32//3
f 25//7 29//7 32//7 26//7
f 26//4 32//4 31//4 27//4
f 27//2 31//2 30//2 28//2
f 29//6 25//6 28//6 30//6
f 33//6 34//6 35//6 36//6
f 37//2 38//2 36//2 35//2
f 39//4 40//4 38//4 37//4
f 34//1 33//1 40//1 39//1
f 33//3 36//3 38//3 40//3
f 34//5 39//5 37//5 35//5
f 41//6 42//6 43//6 44//6
f 45//2 46//2 44//2 43//2
f 47//4 48//4 46//4 45//4
f 42//7 41//7 48//7 47//7
f 41//3 44//3 46//3 48//3
f 42//5 47//5 45//5 43//5
f 49//1 50//1 51//1 52//1
f 53//2 54//2 55//2 56//2
f 49//3 53//3 56//3 50//3
f 50//4 56//4 55//4 51//4
f 51//5 55//5 54//5 52//5
f 53//6 49//6 52//6 54//6
f 57//6 58//6 59//6 60//6
f 61//5 62//5 60//5 59//5
f 63//4 64//4 62//4 61//4
f 58//3 57//3 64//3 63//3
f 57//2 60//2 62//2 64//2
f 58//1 63//1 61//1 59//1
o Cube_Cube.001
v 39.999981 -0.003202 -29.999987
v 39.999981 -0.003211 25.999985
v -39.999985 -0.003211 25.999985
v -39.999966 -0.003202 -30.000000
v 40.000000 83.064377 -29.999958
v -39.999977 83.064377 -29.999973
v -39.999996 83.064362 25.999985
v 39.999958 83.064362 26.000013
vn 0.000000 -1.000000 -0.000000
vn -0.000000 1.000000 0.000000
vn 1.000000 0.000000 0.000000
vn -0.000000 -0.000000 1.000000
vn -1.000000 -0.000000 -0.000000
vn 0.000000 0.000000 -1.000000
usemtl grey
s off
f 65//8 66//8 67//8 68//8
f 69//9 70//9 71//9 72//9
f 65//10 69//10 72//10 66//10
f 66//11 72//11 71//11 67//11
f 67//12 71//12 70//12 68//12
f 69//13 65//13 68//13 70//13
o Cube.002_Cube.003
v 40.000000 7.999996 26.000002
v 40.000000 -0.000004 26.000000
v -40.000000 -0.000004 26.000000
v -40.000000 7.999997 26.000002
v 40.000000 7.999995 28.000002
v -40.000000 7.999996 28.000002
v -40.000000 -0.000005 28.000000
v 40.000000 -0.000005 28.000000
vn 0.000000 0.000000 -1.000000
vn 0.000000 -0.000000 1.000000
vn 1.000000 0.000000 0.000000
vn 0.000000 -1.000000 -0.000000
vn -1.000000 0.000000 0.000000
vn 0.000000 1.000000 0.000000
usemtl flltgrey
s off
f 73//14 74//14 75//14 76//14
f 77//15 78//15 79//15 80//15
f 73//16 77//16 80//16 74//16
f 74//17 80//17 79//17 75//17
f 75//18 79//18 78//18 76//18
f 77//19 73//19 76//19 78//19
o Cube.003_Cube.004
v 40.000000 86.000008 -29.999987
v 40.000000 83.000008 -29.999987
v -40.000000 83.000008 -29.999987
v -40.000000 86.000008 -29.999987
v 40.000000 85.999992 29.000013
v -40.000000 85.999992 29.000013
v -40.000000 82.999992 29.000013
v 40.000000 82.999992 29.000013
vn 0.000000 0.000000 -1.000000
vn 0.000000 0.000000 1.000000
vn 1.000000 0.000000 0.000000
vn 0.000000 -1.000000 -0.000000
vn -1.000000 0.000000 0.000000
vn 0.000000 1.000000 0.000000
usemtl white
s off
f 81//20 82//20 83//20 84//20
f 85//21 86//21 87//21 88//21
f 81//22 85//22 88//22 82//22
f 82//23 88//23 87//23 83//23
f 83//24 87//24 86//24 84//24
f 85//25 81//25 84//25 86//25
o Cube.004_Cube.005
v -27.000000 79.999992 27.000013
v -27.000000 77.999992 27.000013
v -29.000000 77.999992 27.000013
v -29.000000 79.999992 27.000013
v -27.000000 80.000000 32.000011
v -29.000000 80.000000 32.000011
v -29.000000 78.000000 32.000011
v -27.000000 78.000000 32.000011
v -13.000000 79.999992 27.000013
v -13.000000 80.000000 32.000011
v -11.000000 80.000000 32.000011
v -11.000000 79.999992 27.000013
v -13.000000 77.999992 27.000013
v -13.000000 78.000000 32.000011
v -11.000000 77.999992 27.000013
v -11.000000 78.000000 32.000011
v 28.000000 77.999992 27.000013
v 28.000000 79.999992 27.000013
v 30.000000 79.999992 27.000013
v 30.000000 77.999992 27.000013
v 30.000000 80.000000 32.000011
v 28.000000 80.000000 32.000011
v 28.000000 78.000000 32.000011
v 30.000000 78.000000 32.000011
v 12.000000 79.999992 27.000013
v 12.000000 80.000000 32.000011
v 14.000000 80.000000 32.000011
v 14.000000 79.999992 27.000013
v 12.000000 77.999992 27.000013
v 12.000000 78.000000 32.000011
v 14.000000 77.999992 27.000013
v 14.000000 78.000000 32.000011
vn 0.000000 0.000000 -1.000000
vn 0.000000 0.000000 1.000000
vn 1.000000 0.000000 0.000000
vn 0.000000 -1.000000 0.000002
vn -1.000000 0.000000 0.000000
vn 0.000000 1.000000 -0.000002
usemtl ltgrey
s off
f 89//26 90//26 91//26 92//26
f 93//27 94//27 95//27 96//27
f 89//28 93//28 96//28 90//28
f 90//29 96//29 95//29 91//29
f 91//30 95//30 94//30 92//30
f 93//31 89//31 92//31 94//31
f 97//31 98//31 99//31 100//31
f 101//30 102//30 98//30 97//30
f 103//29 104//29 102//29 101//29
f 100//28 99//28 104//28 103//28
f 99//27 98//27 102//27 104//27
f 101//26 97//26 100//26 103//26
f 105//26 106//26 107//26 108//26
f 109//27 110//27 111//27 112//27
f 107//28 109//28 112//28 108//28
f 108//29 112//29 111//29 105//29
f 105//30 111//30 110//30 106//30
f 106//31 110//31 109//31 107//31
f 113//31 114//31 115//31 116//31
f 117//30 118//30 114//30 113//30
f 119//29 120//29 118//29 117//29
f 116//28 115//28 120//28 119//28
f 115//27 114//27 118//27 120//27
f 117//26 113//26 116//26 119//26
o Cube.005_Cube.006
v -13.000000 79.999992 30.000013
v -13.000000 77.999992 30.000013
v -27.000000 77.999992 30.000013
v -27.000000 79.999992 30.000013
v -13.000000 80.000000 32.000011
v -27.000000 80.000000 32.000011
v -27.000000 78.000000 32.000011
v -13.000000 78.000000 32.000011
v 14.000000 79.999992 30.000013
v 14.000000 80.000000 32.000011
v 28.000000 80.000000 32.000011
v 28.000000 79.999992 30.000013
v 14.000000 77.999992 30.000013
v 14.000000 78.000000 32.000011
v 28.000000 77.999992 30.000013
v 28.000000 78.000000 32.000011
vn 0.000000 0.000000 -1.000000
vn 0.000000 0.000000 1.000000
vn 1.000000 0.000000 0.000000
vn 0.000000 -1.000000 0.000004
vn -1.000000 0.000000 0.000000
vn 0.000000 1.000000 -0.000004
usemtl flltgrey
s off
f 121//32 122//32 123//32 124//32
f 125//33 126//33 127//33 128//33
f 121//34 125//34 128//34 122//34
f 122//35 128//35 127//35 123//35
f 123//36 127//36 126//36 124//36
f 125//37 121//37 124//37 126//37
f 129//37 130//37 131//37 132//37
f 133//36 134//36 130//36 129//36
f 135//35 136//35 134//35 133//35
f 132//34 131//34 136//34 135//34
f 131//33 130//33 134//33 136//33
f 133//32 129//32 132//32 135//32
