# Blender v2.69 (sub 0) OBJ File: 'projetVide.blend'
# www.blender.org
mtllib drawers.mtl
o Cube_Cube.002
v -0.000019 -0.003202 -29.999987
v -0.000019 -0.003211 25.999985
v -39.999985 -0.003211 25.999985
v -39.999966 -0.003202 -30.000000
v 0.000000 83.064377 -29.999958
v -39.999977 83.064377 -29.999973
v -39.999996 83.064362 25.999985
v -0.000043 83.064362 26.000013
vn 0.000000 -1.000000 -0.000000
vn -0.000000 1.000000 0.000000
vn 1.000000 0.000000 0.000000
vn -0.000000 -0.000000 1.000000
vn -1.000000 -0.000000 -0.000000
vn 0.000000 0.000000 -1.000000
usemtl grey.002
s off
f 1//1 2//1 3//1 4//1
f 5//2 6//2 7//2 8//2
f 1//3 5//3 8//3 2//3
f 2//4 8//4 7//4 3//4
f 3//5 7//5 6//5 4//5
f 5//6 1//6 4//6 6//6
o Cube.003_Cube.001
v 0.000000 86.000008 -29.999987
v 0.000000 83.000008 -29.999987
v -40.000000 83.000008 -29.999987
v -40.000000 86.000008 -29.999987
v 0.000000 85.999992 29.000013
v -40.000000 85.999992 29.000013
v -40.000000 82.999992 29.000013
v 0.000000 82.999992 29.000013
vn 0.000000 0.000000 -1.000000
vn 0.000000 0.000000 1.000000
vn 1.000000 0.000000 0.000000
vn 0.000000 -1.000000 -0.000000
vn -1.000000 0.000000 0.000000
vn 0.000000 1.000000 0.000000
usemtl white.002
s off
f 9//7 10//7 11//7 12//7
f 13//8 14//8 15//8 16//8
f 9//9 13//9 16//9 10//9
f 10//10 16//10 15//10 11//10
f 11//11 15//11 14//11 12//11
f 13//12 9//12 12//12 14//12
o Cube.005_Cube.001
v -13.000000 76.999992 30.000013
v -13.000000 74.999992 30.000011
v -27.000000 74.999992 30.000011
v -27.000000 76.999992 30.000013
v -13.000000 77.000000 32.000011
v -27.000000 77.000000 32.000011
v -27.000000 75.000000 32.000011
v -13.000000 75.000000 32.000011
v -13.000000 77.000000 32.000011
v -13.000000 76.999992 30.000013
v -27.000000 76.999992 30.000013
v -27.000000 77.000000 32.000011
v -27.000000 74.999992 30.000011
v -27.000000 75.000000 32.000011
v -13.000000 74.999992 30.000011
v -13.000000 75.000000 32.000011
v -13.000000 61.000000 30.000010
v -13.000000 59.000000 30.000010
v -27.000000 59.000000 30.000010
v -27.000000 61.000000 30.000010
v -13.000000 61.000000 32.000015
v -27.000000 61.000000 32.000015
v -27.000000 59.000000 32.000015
v -13.000000 59.000000 32.000015
v -13.000000 45.000000 32.000015
v -13.000000 45.000000 30.000008
v -27.000000 45.000000 30.000008
v -27.000000 45.000000 32.000015
v -27.000000 43.000000 30.000008
v -27.000000 43.000000 32.000011
v -13.000000 43.000000 30.000008
v -13.000000 43.000000 32.000011
v -13.000000 28.999996 30.000004
v -13.000000 26.999996 30.000004
v -27.000000 26.999996 30.000004
v -27.000000 28.999996 30.000004
v -13.000000 28.999996 32.000008
v -27.000000 28.999996 32.000008
v -27.000000 26.999996 32.000008
v -13.000000 26.999996 32.000008
vn 0.000000 0.000001 -1.000000
vn 0.000000 0.000000 1.000000
vn 1.000000 0.000000 0.000000
vn 0.000000 -1.000000 0.000004
vn -1.000000 0.000000 0.000000
vn 0.000000 1.000000 -0.000004
vn 0.000000 0.000000 -1.000000
vn 0.000000 -1.000000 0.000000
vn 0.000000 1.000000 0.000000
vn 0.000000 -0.000002 1.000000
usemtl flltgrey.002
s off
f 17//13 18//13 19//13 20//13
f 21//14 22//14 23//14 24//14
f 17//15 21//15 24//15 18//15
f 18//16 24//16 23//16 19//16
f 19//17 23//17 22//17 20//17
f 21//18 17//18 20//18 22//18
f 25//18 26//18 27//18 28//18
f 29//17 30//17 28//17 27//17
f 31//16 32//16 30//16 29//16
f 26//15 25//15 32//15 31//15
f 25//14 28//14 30//14 32//14
f 26//13 31//13 29//13 27//13
f 33//19 34//19 35//19 36//19
f 37//14 38//14 39//14 40//14
f 33//15 37//15 40//15 34//15
f 34//20 40//20 39//20 35//20
f 35//17 39//17 38//17 36//17
f 37//21 33//21 36//21 38//21
f 41//21 42//21 43//21 44//21
f 45//17 46//17 44//17 43//17
f 47//20 48//20 46//20 45//20
f 42//15 41//15 48//15 47//15
f 41//22 44//22 46//22 48//22
f 42//19 47//19 45//19 43//19
f 49//19 50//19 51//19 52//19
f 53//14 54//14 55//14 56//14
f 49//15 53//15 56//15 50//15
f 50//20 56//20 55//20 51//20
f 51//17 55//17 54//17 52//17
f 53//21 49//21 52//21 54//21
o Cube.002_Cube.001
v 0.000000 7.999996 26.000002
v 0.000000 -0.000004 26.000000
v -40.000000 -0.000004 26.000000
v -40.000000 7.999997 26.000002
v 0.000000 7.999995 28.000002
v -40.000000 7.999996 28.000002
v -40.000000 -0.000005 28.000000
v 0.000000 -0.000005 28.000000
vn 0.000000 0.000000 -1.000000
vn 0.000000 -0.000000 1.000000
vn 1.000000 0.000000 0.000000
vn 0.000000 -1.000000 -0.000000
vn -1.000000 0.000000 0.000000
vn 0.000000 1.000000 0.000000
usemtl flltgrey.002
s off
f 57//23 58//23 59//23 60//23
f 61//24 62//24 63//24 64//24
f 57//25 61//25 64//25 58//25
f 58//26 64//26 63//26 59//26
f 59//27 63//27 62//27 60//27
f 61//28 57//28 60//28 62//28
o Cube.001_Cube.001
v 0.000000 82.699989 28.000013
v 0.000000 66.699989 28.000011
v 0.000000 66.699989 26.000011
v 0.000000 82.699989 26.000015
v -40.000000 82.699989 28.000013
v -40.000000 82.699989 26.000013
v -40.000000 66.699989 26.000011
v -40.000000 66.699989 28.000010
v -40.000000 66.299995 28.000011
v 0.000000 66.299995 28.000011
v 0.000000 66.299995 26.000013
v -40.000000 66.299995 26.000011
v 0.000000 50.299995 26.000008
v -40.000000 50.299995 26.000008
v 0.000000 50.299995 28.000008
v -40.000000 50.299995 28.000006
v 0.000000 49.899994 28.000008
v 0.000000 33.899994 28.000006
v 0.000000 33.899994 26.000006
v 0.000000 49.899994 26.000010
v -40.000000 49.899994 28.000008
v -40.000000 49.899994 26.000008
v -40.000000 33.899994 26.000006
v -40.000000 33.899994 28.000004
v 0.000000 33.499996 28.000006
v 0.000000 8.299994 28.000002
v 0.000000 8.299994 26.000002
v 0.000000 33.499996 26.000008
v -40.000000 33.499996 28.000006
v -40.000000 33.499996 26.000006
v -40.000000 8.299994 26.000002
v -40.000000 8.299994 28.000000
vn 1.000000 0.000000 0.000000
vn -1.000000 0.000000 0.000000
vn 0.000000 -0.000000 1.000000
vn 0.000000 -1.000000 0.000000
vn 0.000000 0.000000 -1.000000
vn 0.000000 1.000000 0.000000
usemtl grey.002
s off
f 65//29 66//29 67//29 68//29
f 69//30 70//30 71//30 72//30
f 65//31 69//31 72//31 66//31
f 66//32 72//32 71//32 67//32
f 67//33 71//33 70//33 68//33
f 69//34 65//34 68//34 70//34
f 73//34 74//34 75//34 76//34
f 77//33 78//33 76//33 75//33
f 79//32 80//32 78//32 77//32
f 74//31 73//31 80//31 79//31
f 73//30 76//30 78//30 80//30
f 74//29 79//29 77//29 75//29
f 81//29 82//29 83//29 84//29
f 85//30 86//30 87//30 88//30
f 81//31 85//31 88//31 82//31
f 82//32 88//32 87//32 83//32
f 83//33 87//33 86//33 84//33
f 85//34 81//34 84//34 86//34
f 89//29 90//29 91//29 92//29
f 93//30 94//30 95//30 96//30
f 89//31 93//31 96//31 90//31
f 90//32 96//32 95//32 91//32
f 91//33 95//33 94//33 92//33
f 93//34 89//34 92//34 94//34
o Cube.004_Cube.001
v -27.000000 76.999992 27.000013
v -27.000000 74.999992 27.000011
v -29.000000 74.999992 27.000011
v -29.000000 76.999992 27.000013
v -27.000000 77.000000 32.000011
v -29.000000 77.000000 32.000011
v -29.000000 75.000000 32.000011
v -27.000000 75.000000 32.000011
v -13.000000 76.999992 27.000013
v -13.000000 77.000000 32.000011
v -11.000000 77.000000 32.000011
v -11.000000 76.999992 27.000013
v -13.000000 74.999992 27.000011
v -13.000000 75.000000 32.000011
v -11.000000 74.999992 27.000011
v -11.000000 75.000000 32.000011
v -13.000000 59.000000 27.000008
v -13.000000 61.000000 27.000008
v -11.000000 61.000000 27.000008
v -11.000000 59.000000 27.000008
v -11.000000 61.000000 32.000015
v -13.000000 61.000000 32.000015
v -13.000000 59.000000 32.000015
v -11.000000 59.000000 32.000015
v -27.000000 61.000000 32.000015
v -27.000000 61.000000 27.000008
v -29.000000 61.000000 27.000008
v -29.000000 61.000000 32.000015
v -29.000000 59.000000 27.000008
v -29.000000 59.000000 32.000015
v -27.000000 59.000000 27.000008
v -27.000000 59.000000 32.000015
v -27.000000 45.000000 27.000006
v -27.000000 43.000000 27.000006
v -29.000000 43.000000 27.000006
v -29.000000 45.000000 27.000006
v -27.000000 45.000000 32.000015
v -29.000000 45.000000 32.000015
v -29.000000 43.000000 32.000011
v -27.000000 43.000000 32.000011
v -13.000000 45.000000 27.000006
v -13.000000 45.000000 32.000015
v -11.000000 45.000000 32.000015
v -11.000000 45.000000 27.000006
v -13.000000 43.000000 27.000006
v -13.000000 43.000000 32.000011
v -11.000000 43.000000 27.000006
v -11.000000 43.000000 32.000011
v -13.000000 26.999998 27.000002
v -13.000000 28.999998 27.000002
v -11.000000 28.999998 27.000002
v -11.000000 26.999998 27.000002
v -11.000000 28.999996 32.000008
v -13.000000 28.999996 32.000008
v -13.000000 26.999996 32.000008
v -11.000000 26.999996 32.000008
v -27.000000 28.999996 32.000008
v -27.000000 28.999998 27.000002
v -29.000000 28.999998 27.000002
v -29.000000 28.999996 32.000008
v -29.000000 26.999998 27.000002
v -29.000000 26.999996 32.000008
v -27.000000 26.999998 27.000002
v -27.000000 26.999996 32.000008
vn 0.000000 0.000001 -1.000000
vn 0.000000 0.000000 1.000000
vn 1.000000 0.000000 0.000000
vn 0.000000 -1.000000 0.000002
vn -1.000000 0.000000 0.000000
vn 0.000000 1.000000 -0.000002
vn 0.000000 0.000000 -1.000000
vn 0.000000 -1.000000 0.000000
vn 0.000000 1.000000 0.000000
vn 0.000000 -0.000002 1.000000
usemtl ltgrey.002
s off
f 97//35 98//35 99//35 100//35
f 101//36 102//36 103//36 104//36
f 97//37 101//37 104//37 98//37
f 98//38 104//38 103//38 99//38
f 99//39 103//39 102//39 100//39
f 101//40 97//40 100//40 102//40
f 105//40 106//40 107//40 108//40
f 109//39 110//39 106//39 105//39
f 111//38 112//38 110//38 109//38
f 108//37 107//37 112//37 111//37
f 107//36 106//36 110//36 112//36
f 109//35 105//35 108//35 111//35
f 113//41 114//41 115//41 116//41
f 117//36 118//36 119//36 120//36
f 115//37 117//37 120//37 116//37
f 116//42 120//42 119//42 113//42
f 113//39 119//39 118//39 114//39
f 114//43 118//43 117//43 115//43
f 121//43 122//43 123//43 124//43
f 125//39 126//39 124//39 123//39
f 127//42 128//42 126//42 125//42
f 122//37 121//37 128//37 127//37
f 121//36 124//36 126//36 128//36
f 122//41 127//41 125//41 123//41
f 129//41 130//41 131//41 132//41
f 133//44 134//44 135//44 136//44
f 129//37 133//37 136//37 130//37
f 130//42 136//42 135//42 131//42
f 131//39 135//39 134//39 132//39
f 133//43 129//43 132//43 134//43
f 137//43 138//43 139//43 140//43
f 141//39 142//39 138//39 137//39
f 143//42 144//42 142//42 141//42
f 140//37 139//37 144//37 143//37
f 139//44 138//44 142//44 144//44
f 141//41 137//41 140//41 143//41
f 145//41 146//41 147//41 148//41
f 149//36 150//36 151//36 152//36
f 147//37 149//37 152//37 148//37
f 148//42 152//42 151//42 145//42
f 145//39 151//39 150//39 146//39
f 146//43 150//43 149//43 147//43
f 153//43 154//43 155//43 156//43
f 157//39 158//39 156//39 155//39
f 159//42 160//42 158//42 157//42
f 154//37 153//37 160//37 159//37
f 153//36 156//36 158//36 160//36
f 154//41 159//41 157//41 155//41
