# Blender v2.74 (sub 0) OBJ File: ''
# www.blender.org
mtllib drawers.mtl
o Cube.004_Cube.001
v -27.000000 77.000000 27.000000
v -27.000000 75.000000 27.000000
v -29.000000 75.000000 27.000000
v -29.000000 77.000000 27.000000
v -27.000000 77.000008 32.000000
v -29.000000 77.000008 32.000000
v -29.000000 75.000008 32.000000
v -27.000000 75.000008 32.000000
v -13.000000 77.000000 27.000000
v -13.000000 77.000008 32.000000
v -11.000000 77.000008 32.000000
v -11.000000 77.000000 27.000000
v -13.000000 75.000000 27.000000
v -13.000000 75.000008 32.000000
v -11.000000 75.000000 27.000000
v -11.000000 75.000008 32.000000
v -13.000000 59.000004 26.999998
v -13.000000 61.000004 26.999998
v -11.000000 61.000004 26.999998
v -11.000000 59.000004 26.999998
v -11.000000 61.000004 32.000004
v -13.000000 61.000004 32.000004
v -13.000000 59.000004 32.000004
v -11.000000 59.000004 32.000004
v -27.000000 61.000004 32.000004
v -27.000000 61.000004 26.999998
v -29.000000 61.000004 26.999998
v -29.000000 61.000004 32.000004
v -29.000000 59.000004 26.999998
v -29.000000 59.000004 32.000004
v -27.000000 59.000004 26.999998
v -27.000000 59.000004 32.000004
v -27.000000 45.000004 26.999998
v -27.000000 43.000004 26.999998
v -29.000000 43.000004 26.999998
v -29.000000 45.000004 26.999998
v -27.000000 45.000004 32.000008
v -29.000000 45.000004 32.000008
v -29.000000 43.000004 32.000004
v -27.000000 43.000004 32.000004
v -13.000000 45.000004 26.999998
v -13.000000 45.000004 32.000008
v -11.000000 45.000004 32.000008
v -11.000000 45.000004 26.999998
v -13.000000 43.000004 26.999998
v -13.000000 43.000004 32.000004
v -11.000000 43.000004 26.999998
v -11.000000 43.000004 32.000004
v -13.000000 27.000002 26.999998
v -13.000000 29.000002 26.999998
v -11.000000 29.000002 26.999998
v -11.000000 27.000002 26.999998
v -11.000000 29.000002 32.000004
v -13.000000 29.000002 32.000004
v -13.000000 27.000002 32.000004
v -11.000000 27.000002 32.000004
v -27.000000 29.000002 32.000004
v -27.000000 29.000002 26.999998
v -29.000000 29.000002 26.999998
v -29.000000 29.000002 32.000004
v -29.000000 27.000002 26.999998
v -29.000000 27.000002 32.000004
v -27.000000 27.000002 26.999998
v -27.000000 27.000002 32.000004
vn 0.000000 0.000000 -1.000000
vn 0.000000 0.000000 1.000000
vn 1.000000 0.000000 0.000000
vn 0.000000 -1.000000 0.000000
vn -1.000000 0.000000 0.000000
vn 0.000000 1.000000 -0.000000
usemtl ltgrey.002
s off
f 1//1 2//1 3//1 4//1
f 5//2 6//2 7//2 8//2
f 1//3 5//3 8//3 2//3
f 2//4 8//4 7//4 3//4
f 3//5 7//5 6//5 4//5
f 5//6 1//6 4//6 6//6
f 9//6 10//6 11//6 12//6
f 13//5 14//5 10//5 9//5
f 15//4 16//4 14//4 13//4
f 12//3 11//3 16//3 15//3
f 11//2 10//2 14//2 16//2
f 13//1 9//1 12//1 15//1
f 17//1 18//1 19//1 20//1
f 21//2 22//2 23//2 24//2
f 19//3 21//3 24//3 20//3
f 20//4 24//4 23//4 17//4
f 17//5 23//5 22//5 18//5
f 18//6 22//6 21//6 19//6
f 25//6 26//6 27//6 28//6
f 29//5 30//5 28//5 27//5
f 31//4 32//4 30//4 29//4
f 26//3 25//3 32//3 31//3
f 25//2 28//2 30//2 32//2
f 26//1 31//1 29//1 27//1
f 33//1 34//1 35//1 36//1
f 37//2 38//2 39//2 40//2
f 33//3 37//3 40//3 34//3
f 34//4 40//4 39//4 35//4
f 35//5 39//5 38//5 36//5
f 37//6 33//6 36//6 38//6
f 41//6 42//6 43//6 44//6
f 45//5 46//5 42//5 41//5
f 47//4 48//4 46//4 45//4
f 44//3 43//3 48//3 47//3
f 43//2 42//2 46//2 48//2
f 45//1 41//1 44//1 47//1
f 49//1 50//1 51//1 52//1
f 53//2 54//2 55//2 56//2
f 51//3 53//3 56//3 52//3
f 52//4 56//4 55//4 49//4
f 49//5 55//5 54//5 50//5
f 50//6 54//6 53//6 51//6
f 57//6 58//6 59//6 60//6
f 61//5 62//5 60//5 59//5
f 63//4 64//4 62//4 61//4
f 58//3 57//3 64//3 63//3
f 57//2 60//2 62//2 64//2
f 58//1 63//1 61//1 59//1
o Cube.001_Cube.001
v 0.000000 82.699997 28.000000
v 0.000000 66.699997 28.000000
v 0.000000 66.699997 26.000000
v 0.000000 82.699997 26.000002
v -40.000000 82.699997 28.000000
v -40.000000 82.699997 26.000000
v -40.000000 66.699997 26.000000
v -40.000000 66.699997 27.999998
v -40.000000 66.300003 28.000000
v 0.000000 66.300003 28.000000
v 0.000000 66.300003 26.000002
v -40.000000 66.300003 26.000000
v 0.000000 50.299999 26.000000
v -40.000000 50.299999 26.000000
v 0.000000 50.299999 28.000000
v -40.000000 50.299999 27.999998
v 0.000000 49.899998 28.000000
v 0.000000 33.899998 28.000000
v 0.000000 33.899998 26.000000
v 0.000000 49.899998 26.000002
v -40.000000 49.899998 28.000000
v -40.000000 49.899998 26.000000
v -40.000000 33.899998 26.000000
v -40.000000 33.899998 27.999998
v 0.000000 33.500000 28.000000
v 0.000000 8.299998 28.000000
v 0.000000 8.299998 26.000000
v 0.000000 33.500000 26.000002
v -40.000000 33.500000 28.000000
v -40.000000 33.500000 26.000000
v -40.000000 8.299998 26.000000
v -40.000000 8.299998 27.999998
vn 1.000000 0.000000 0.000000
vn -1.000000 0.000000 0.000000
vn 0.000000 -0.000000 1.000000
vn 0.000000 -1.000000 0.000000
vn 0.000000 0.000000 -1.000000
vn 0.000000 1.000000 0.000000
usemtl grey.002
s off
f 65//7 66//7 67//7 68//7
f 69//8 70//8 71//8 72//8
f 65//9 69//9 72//9 66//9
f 66//10 72//10 71//10 67//10
f 67//11 71//11 70//11 68//11
f 69//12 65//12 68//12 70//12
f 73//12 74//12 75//12 76//12
f 77//11 78//11 76//11 75//11
f 79//10 80//10 78//10 77//10
f 74//9 73//9 80//9 79//9
f 73//8 76//8 78//8 80//8
f 74//7 79//7 77//7 75//7
f 81//7 82//7 83//7 84//7
f 85//8 86//8 87//8 88//8
f 81//9 85//9 88//9 82//9
f 82//10 88//10 87//10 83//10
f 83//11 87//11 86//11 84//11
f 85//12 81//12 84//12 86//12
f 89//7 90//7 91//7 92//7
f 93//8 94//8 95//8 96//8
f 89//9 93//9 96//9 90//9
f 90//10 96//10 95//10 91//10
f 91//11 95//11 94//11 92//11
f 93//12 89//12 92//12 94//12
o Cube.005_Cube.001
v -13.000000 77.000000 30.000000
v -13.000000 75.000000 30.000000
v -27.000000 75.000000 30.000000
v -27.000000 77.000000 30.000000
v -13.000000 77.000008 32.000000
v -27.000000 77.000008 32.000000
v -27.000000 75.000008 32.000000
v -13.000000 75.000008 32.000000
v -13.000000 77.000008 32.000000
v -13.000000 77.000000 30.000000
v -27.000000 77.000000 30.000000
v -27.000000 77.000008 32.000000
v -27.000000 75.000000 30.000000
v -27.000000 75.000008 32.000000
v -13.000000 75.000000 30.000000
v -13.000000 75.000008 32.000000
v -13.000000 61.000004 30.000000
v -13.000000 59.000004 30.000000
v -27.000000 59.000004 30.000000
v -27.000000 61.000004 30.000000
v -13.000000 61.000004 32.000004
v -27.000000 61.000004 32.000004
v -27.000000 59.000004 32.000004
v -13.000000 59.000004 32.000004
v -13.000000 45.000004 32.000008
v -13.000000 45.000004 30.000000
v -27.000000 45.000004 30.000000
v -27.000000 45.000004 32.000008
v -27.000000 43.000004 30.000000
v -27.000000 43.000004 32.000004
v -13.000000 43.000004 30.000000
v -13.000000 43.000004 32.000004
v -13.000000 29.000002 30.000000
v -13.000000 27.000002 30.000000
v -27.000000 27.000002 30.000000
v -27.000000 29.000002 30.000000
v -13.000000 29.000002 32.000004
v -27.000000 29.000002 32.000004
v -27.000000 27.000002 32.000004
v -13.000000 27.000002 32.000004
vn 0.000000 0.000000 -1.000000
vn 0.000000 0.000000 1.000000
vn 1.000000 0.000000 0.000000
vn 0.000000 -1.000000 0.000000
vn -1.000000 0.000000 0.000000
vn 0.000000 1.000000 -0.000000
usemtl flltgrey.002
s off
f 97//13 98//13 99//13 100//13
f 101//14 102//14 103//14 104//14
f 97//15 101//15 104//15 98//15
f 98//16 104//16 103//16 99//16
f 99//17 103//17 102//17 100//17
f 101//18 97//18 100//18 102//18
f 105//18 106//18 107//18 108//18
f 109//17 110//17 108//17 107//17
f 111//16 112//16 110//16 109//16
f 106//15 105//15 112//15 111//15
f 105//14 108//14 110//14 112//14
f 106//13 111//13 109//13 107//13
f 113//13 114//13 115//13 116//13
f 117//14 118//14 119//14 120//14
f 113//15 117//15 120//15 114//15
f 114//16 120//16 119//16 115//16
f 115//17 119//17 118//17 116//17
f 117//18 113//18 116//18 118//18
f 121//18 122//18 123//18 124//18
f 125//17 126//17 124//17 123//17
f 127//16 128//16 126//16 125//16
f 122//15 121//15 128//15 127//15
f 121//14 124//14 126//14 128//14
f 122//13 127//13 125//13 123//13
f 129//13 130//13 131//13 132//13
f 133//14 134//14 135//14 136//14
f 129//15 133//15 136//15 130//15
f 130//16 136//16 135//16 131//16
f 131//17 135//17 134//17 132//17
f 133//18 129//18 132//18 134//18
o Cube.003_Cube.001
v 0.000000 86.000000 -30.000000
v 0.000000 83.000000 -30.000000
v -40.000000 83.000000 -30.000000
v -40.000000 86.000000 -30.000000
v 0.000000 86.000000 29.000000
v -40.000000 86.000000 29.000000
v -40.000000 83.000000 29.000000
v 0.000000 83.000000 29.000000
vn 0.000000 0.000000 -1.000000
vn 0.000000 0.000000 1.000000
vn 1.000000 0.000000 0.000000
vn 0.000000 -1.000000 0.000000
vn -1.000000 0.000000 0.000000
vn 0.000000 1.000000 0.000000
usemtl white.002
s off
f 137//19 138//19 139//19 140//19
f 141//20 142//20 143//20 144//20
f 137//21 141//21 144//21 138//21
f 138//22 144//22 143//22 139//22
f 139//23 143//23 142//23 140//23
f 141//24 137//24 140//24 142//24
o Cube_Cube.002
v -0.000019 -0.003207 -29.999987
v -0.000019 -0.003207 25.999985
v -39.999985 -0.003207 25.999985
v -39.999966 -0.003207 -30.000000
v 0.000000 83.064369 -29.999971
v -39.999977 83.064369 -29.999987
v -39.999996 83.064369 25.999971
v -0.000043 83.064369 26.000000
vn 0.000000 -1.000000 -0.000000
vn 0.000000 1.000000 -0.000000
vn 1.000000 0.000000 0.000000
vn -0.000000 -0.000000 1.000000
vn -1.000000 -0.000000 -0.000000
vn 0.000000 0.000000 -1.000000
usemtl grey.002
s off
f 145//25 146//25 147//25 148//25
f 149//26 150//26 151//26 152//26
f 145//27 149//27 152//27 146//27
f 146//28 152//28 151//28 147//28
f 147//29 151//29 150//29 148//29
f 149//30 145//30 148//30 150//30
o Cube.002_Cube.001
v 0.000000 8.000000 26.000000
v 0.000000 -0.000000 26.000000
v -40.000000 -0.000000 26.000000
v -40.000000 8.000001 26.000000
v 0.000000 8.000000 28.000000
v -40.000000 8.000001 28.000000
v -40.000000 -0.000000 28.000000
v 0.000000 -0.000000 28.000000
vn 0.000000 0.000000 -1.000000
vn 0.000000 0.000000 1.000000
vn 1.000000 0.000000 0.000000
vn 0.000000 -1.000000 -0.000000
vn -1.000000 0.000000 0.000000
vn 0.000000 1.000000 0.000000
usemtl flltgrey.002
s off
f 153//31 154//31 155//31 156//31
f 157//32 158//32 159//32 160//32
f 153//33 157//33 160//33 154//33
f 154//34 160//34 159//34 155//34
f 155//35 159//35 158//35 156//35
f 157//36 153//36 156//36 158//36
