# Blender v2.69 (sub 0) OBJ File: 'projetVide.blend'
# www.blender.org
mtllib patioDoorSideWindow.mtl
o Cube_10_1.001
v 8.410470 3.892320 0.148661
v 4.522350 3.892320 0.148661
v 6.466410 3.892320 0.000001
v 8.410470 3.892320 -0.148659
v 4.522350 3.892320 -0.148659
v 8.410470 3.995250 0.000001
v 8.410470 4.098170 -0.148659
v 8.410470 4.098170 0.148661
v 6.466410 3.995250 0.148661
v 4.522350 4.098170 0.148661
v 4.522350 3.995250 0.000001
v 4.522350 4.098170 -0.148659
v 6.466410 4.098170 0.000001
v 6.466410 3.995250 -0.148659
vn 0.577349 -0.577349 0.577349
vn -0.577349 -0.577349 0.577349
vn 0.000000 -1.000000 0.000000
vn 0.577349 -0.577349 -0.577349
vn -0.577349 -0.577349 -0.577349
vn 1.000000 0.000000 0.000000
vn 0.577349 0.577349 -0.577349
vn 0.577349 0.577349 0.577349
vn 0.000000 0.000000 1.000000
vn -0.577349 0.577349 0.577349
vn -1.000000 0.000000 0.000000
vn -0.577349 0.577349 -0.577349
vn 0.000000 1.000000 0.000000
vn 0.000000 0.000000 -1.000000
usemtl lighttan.006
s 1
f 1//1 2//2 3//3
f 4//4 1//1 3//3
f 5//5 4//4 3//3
f 2//2 5//5 3//3
f 1//1 4//4 6//6
f 4//4 7//7 6//6
f 7//7 8//8 6//6
f 8//8 1//1 6//6
f 2//2 1//1 9//9
f 1//1 8//8 9//9
f 8//8 10//10 9//9
f 10//10 2//2 9//9
f 5//5 2//2 11//11
f 2//2 10//10 11//11
f 10//10 12//12 11//11
f 12//12 5//5 11//11
f 10//10 8//8 13//13
f 8//8 7//7 13//13
f 7//7 12//12 13//13
f 12//12 10//10 13//13
f 4//4 5//5 14//14
f 5//5 12//12 14//14
f 12//12 7//7 14//14
f 7//7 4//4 14//14
o Cube_7_1.001
v 8.536760 -5.485890 0.230539
v 7.987850 -5.485890 0.230539
v 8.262300 -5.485890 -0.000001
v 8.536760 -5.485890 -0.230541
v 7.987850 -5.485890 -0.230541
v 8.536760 1.742070 0.000000
v 8.536760 8.970030 -0.230539
v 8.536760 8.970030 0.230541
v 8.262300 1.742070 0.230540
v 7.987850 8.970030 0.230541
v 7.987850 1.742070 0.000000
v 7.987850 8.970030 -0.230539
v 8.262300 8.970030 0.000001
v 8.262300 1.742070 -0.230540
vn 0.577349 -0.577349 0.577349
vn -0.577349 -0.577349 0.577349
vn 0.000000 -1.000000 0.000000
vn 0.577349 -0.577349 -0.577349
vn -0.577349 -0.577349 -0.577349
vn 1.000000 0.000000 0.000000
vn 0.577349 0.577349 -0.577349
vn 0.577349 0.577349 0.577349
vn 0.000000 0.000000 1.000000
vn -0.577349 0.577349 0.577349
vn -1.000000 0.000000 0.000000
vn -0.577349 0.577349 -0.577349
vn 0.000000 1.000000 0.000000
vn 0.000000 0.000000 -1.000000
usemtl lighttan.006
s 1
f 15//15 16//16 17//17
f 18//18 15//15 17//17
f 19//19 18//18 17//17
f 16//16 19//19 17//17
f 15//15 18//18 20//20
f 18//18 21//21 20//20
f 21//21 22//22 20//20
f 22//22 15//15 20//20
f 16//16 15//15 23//23
f 15//15 22//22 23//23
f 22//22 24//24 23//23
f 24//24 16//16 23//23
f 19//19 16//16 25//25
f 16//16 24//24 25//25
f 24//24 26//26 25//25
f 26//26 19//19 25//25
f 24//24 22//22 27//27
f 22//22 21//21 27//27
f 21//21 26//26 27//27
f 26//26 24//24 27//27
f 18//18 19//19 28//28
f 19//19 26//26 28//28
f 26//26 21//21 28//28
f 21//21 18//18 28//28
o frame
v 4.490220 -5.490530 0.224579
v 4.069000 -5.490530 0.224579
v 4.279610 -5.490530 -0.007091
v 4.490220 -5.490530 -0.238761
v 4.069000 -5.490530 -0.238761
v 4.490220 1.959960 -0.007090
v 4.490220 9.410460 -0.238758
v 4.490220 9.410460 0.224582
v 4.279610 1.959960 0.224580
v 4.069000 9.410460 0.224582
v 4.069000 1.959960 -0.007090
v 4.069000 9.410460 -0.238758
v 4.279610 9.410460 -0.007088
v 4.279610 1.959960 -0.238760
vn 0.577349 -0.577349 0.577349
vn -0.577349 -0.577349 0.577349
vn 0.000000 -1.000000 0.000000
vn 0.577349 -0.577349 -0.577349
vn -0.577349 -0.577349 -0.577349
vn 1.000000 0.000000 0.000000
vn 0.577349 0.577349 -0.577349
vn 0.577349 0.577349 0.577349
vn 0.000000 0.000000 1.000000
vn -0.577349 0.577349 0.577349
vn -1.000000 0.000000 0.000000
vn -0.577349 0.577349 -0.577349
vn 0.000000 1.000000 0.000000
vn 0.000000 0.000000 -1.000000
usemtl lighttan.006
s 1
f 29//29 30//30 31//31
f 32//32 29//29 31//31
f 33//33 32//32 31//31
f 30//30 33//33 31//31
f 29//29 32//32 34//34
f 32//32 35//35 34//34
f 35//35 36//36 34//34
f 36//36 29//29 34//34
f 30//30 29//29 37//37
f 29//29 36//36 37//37
f 36//36 38//38 37//37
f 38//38 30//30 37//37
f 33//33 30//30 39//39
f 30//30 38//38 39//39
f 38//38 40//40 39//39
f 40//40 33//33 39//39
f 38//38 36//36 41//41
f 36//36 35//35 41//41
f 35//35 40//40 41//41
f 40//40 38//38 41//41
f 32//32 33//33 42//42
f 33//33 40//40 42//42
f 40//40 35//35 42//42
f 35//35 32//32 42//42
o Cube_7.001
v 5.034500 -5.486870 0.230539
v 4.485590 -5.486870 0.230539
v 4.760040 -5.486870 -0.000001
v 5.034500 -5.486870 -0.230541
v 4.485590 -5.486870 -0.230541
v 5.034500 1.760120 0.000000
v 5.034500 9.007110 -0.230539
v 5.034500 9.007110 0.230541
v 4.760040 1.760120 0.230540
v 4.485590 9.007110 0.230541
v 4.485590 1.760120 0.000000
v 4.485590 9.007110 -0.230539
v 4.760040 9.007110 0.000001
v 4.760040 1.760120 -0.230540
vn 0.577349 -0.577349 0.577349
vn -0.577349 -0.577349 0.577349
vn 0.000000 -1.000000 0.000000
vn 0.577349 -0.577349 -0.577349
vn -0.577349 -0.577349 -0.577349
vn 1.000000 0.000000 0.000000
vn 0.577349 0.577349 -0.577349
vn 0.577349 0.577349 0.577349
vn 0.000000 0.000000 1.000000
vn -0.577349 0.577349 0.577349
vn -1.000000 0.000000 0.000000
vn -0.577349 0.577349 -0.577349
vn 0.000000 1.000000 0.000000
vn 0.000000 0.000000 -1.000000
usemtl lighttan.006
s 1
f 43//43 44//44 45//45
f 46//46 43//43 45//45
f 47//47 46//46 45//45
f 44//44 47//47 45//45
f 43//43 46//46 48//48
f 46//46 49//49 48//48
f 49//49 50//50 48//48
f 50//50 43//43 48//48
f 44//44 43//43 51//51
f 43//43 50//50 51//51
f 50//50 52//52 51//51
f 52//52 44//44 51//51
f 47//47 44//44 53//53
f 44//44 52//52 53//53
f 52//52 54//54 53//53
f 54//54 47//47 53//53
f 52//52 50//50 55//55
f 50//50 49//49 55//55
f 49//49 54//54 55//55
f 54//54 52//52 55//55
f 46//46 47//47 56//56
f 47//47 54//54 56//56
f 54//54 49//49 56//56
f 49//49 46//46 56//56
o Cube_10_4.001
v 8.441330 -3.380740 0.148659
v 4.553210 -3.380740 0.148659
v 6.497270 -3.380740 -0.000001
v 8.441330 -3.380740 -0.148661
v 4.553210 -3.380740 -0.148661
v 8.441330 -3.277820 -0.000001
v 8.441330 -3.174900 -0.148661
v 8.441330 -3.174900 0.148659
v 6.497270 -3.277820 0.148659
v 4.553210 -3.174900 0.148659
v 4.553210 -3.277820 -0.000001
v 4.553210 -3.174900 -0.148661
v 6.497270 -3.174900 -0.000001
v 6.497270 -3.277820 -0.148661
vn 0.577349 -0.577349 0.577349
vn -0.577349 -0.577349 0.577349
vn 0.000000 -1.000000 0.000000
vn 0.577349 -0.577349 -0.577349
vn -0.577349 -0.577349 -0.577349
vn 1.000000 0.000000 0.000000
vn 0.577349 0.577349 -0.577349
vn 0.577349 0.577349 0.577349
vn 0.000000 0.000000 1.000000
vn -0.577349 0.577349 0.577349
vn -1.000000 0.000000 0.000000
vn -0.577349 0.577349 -0.577349
vn 0.000000 1.000000 0.000000
vn 0.000000 0.000000 -1.000000
usemtl lighttan.006
s 1
f 57//57 58//58 59//59
f 60//60 57//57 59//59
f 61//61 60//60 59//59
f 58//58 61//61 59//59
f 57//57 60//60 62//62
f 60//60 63//63 62//62
f 63//63 64//64 62//62
f 64//64 57//57 62//62
f 58//58 57//57 65//65
f 57//57 64//64 65//65
f 64//64 66//66 65//65
f 66//66 58//58 65//65
f 61//61 58//58 67//67
f 58//58 66//66 67//67
f 66//66 68//68 67//67
f 68//68 61//61 67//67
f 66//66 64//64 69//69
f 64//64 63//63 69//69
f 63//63 68//68 69//69
f 68//68 66//66 69//69
f 60//60 61//61 70//70
f 61//61 68//68 70//70
f 68//68 63//63 70//70
f 63//63 60//60 70//70
o Cube_4.002
v 6.667250 -5.314960 0.222199
v 6.424850 -5.314960 0.222199
v 6.546050 -5.314960 -0.000001
v 6.667250 -5.314960 -0.222201
v 6.424850 -5.314960 -0.222201
v 6.667250 1.759550 0.000000
v 6.667250 8.834070 -0.222199
v 6.667250 8.834070 0.222201
v 6.546050 1.759550 0.222200
v 6.424850 8.834070 0.222201
v 6.424850 1.759550 0.000000
v 6.424850 8.834070 -0.222199
v 6.546050 8.834070 0.000001
v 6.546050 1.759550 -0.222200
vn 0.577349 -0.577349 0.577349
vn -0.577349 -0.577349 0.577349
vn 0.000000 -1.000000 0.000000
vn 0.577349 -0.577349 -0.577349
vn -0.577349 -0.577349 -0.577349
vn 1.000000 0.000000 0.000000
vn 0.577349 0.577349 -0.577349
vn 0.577349 0.577349 0.577349
vn 0.000000 0.000000 1.000000
vn -0.577349 0.577349 0.577349
vn -1.000000 0.000000 0.000000
vn -0.577349 0.577349 -0.577349
vn 0.000000 1.000000 0.000000
vn 0.000000 0.000000 -1.000000
usemtl lighttan.006
s 1
f 71//71 72//72 73//73
f 74//74 71//71 73//73
f 75//75 74//74 73//73
f 72//72 75//75 73//73
f 71//71 74//74 76//76
f 74//74 77//77 76//76
f 77//77 78//78 76//76
f 78//78 71//71 76//76
f 72//72 71//71 79//79
f 71//71 78//78 79//79
f 78//78 80//80 79//79
f 80//80 72//72 79//79
f 75//75 72//72 81//81
f 72//72 80//80 81//81
f 80//80 82//82 81//81
f 82//82 75//75 81//81
f 80//80 78//78 83//83
f 78//78 77//77 83//83
f 77//77 82//82 83//83
f 82//82 80//80 83//83
f 74//74 75//75 84//84
f 75//75 82//82 84//84
f 82//82 77//77 84//84
f 77//77 74//74 84//84
o sweethome3d_window_pane.002
v 8.181760 -5.347680 0.088379
v 4.705330 -5.347680 0.088379
v 6.443540 -5.347680 -0.000001
v 8.181760 -5.347680 -0.088381
v 4.705330 -5.347680 -0.088381
v 8.181760 1.719550 0.000000
v 8.181760 8.786780 -0.088379
v 8.181760 8.786780 0.088381
v 6.443540 1.719550 0.088380
v 4.705330 8.786780 0.088381
v 4.705330 1.719550 0.000000
v 4.705330 8.786780 -0.088379
v 6.443540 8.786780 0.000001
v 6.443540 1.719550 -0.088380
vn 0.577349 -0.577349 0.577349
vn -0.577349 -0.577349 0.577349
vn 0.000000 -1.000000 0.000000
vn 0.577349 -0.577349 -0.577349
vn -0.577349 -0.577349 -0.577349
vn 1.000000 0.000000 0.000000
vn 0.577349 0.577349 -0.577349
vn 0.577349 0.577349 0.577349
vn 0.000000 0.000000 1.000000
vn -0.577349 0.577349 0.577349
vn -1.000000 0.000000 0.000000
vn -0.577349 0.577349 -0.577349
vn 0.000000 1.000000 0.000000
vn 0.000000 0.000000 -1.000000
usemtl flltgrey.005
s 1
f 85//85 86//86 87//87
f 88//88 85//85 87//87
f 89//89 88//88 87//87
f 86//86 89//89 87//87
f 85//85 88//88 90//90
f 88//88 91//91 90//90
f 91//91 92//92 90//90
f 92//92 85//85 90//90
f 86//86 85//85 93//93
f 85//85 92//92 93//93
f 92//92 94//94 93//93
f 94//94 86//86 93//93
f 89//89 86//86 95//95
f 86//86 94//94 95//95
f 94//94 96//96 95//95
f 96//96 89//89 95//95
f 94//94 92//92 97//97
f 92//92 91//91 97//97
f 91//91 96//96 97//97
f 96//96 94//94 97//97
f 88//88 89//89 98//98
f 89//89 96//96 98//98
f 96//96 91//91 98//98
f 91//91 88//88 98//98
o Cube_10_2.001
v 8.410470 1.536580 0.148660
v 4.522350 1.536580 0.148660
v 6.466410 1.536580 0.000000
v 8.410470 1.536580 -0.148660
v 4.522350 1.536580 -0.148660
v 8.410470 1.639500 0.000000
v 8.410470 1.742420 -0.148660
v 8.410470 1.742420 0.148660
v 6.466410 1.639500 0.148660
v 4.522350 1.742420 0.148660
v 4.522350 1.639500 0.000000
v 4.522350 1.742420 -0.148660
v 6.466410 1.742420 0.000000
v 6.466410 1.639500 -0.148660
vn 0.577349 -0.577349 0.577349
vn -0.577349 -0.577349 0.577349
vn 0.000000 -1.000000 0.000000
vn 0.577349 -0.577349 -0.577349
vn -0.577349 -0.577349 -0.577349
vn 1.000000 0.000000 0.000000
vn 0.577349 0.577349 -0.577349
vn 0.577349 0.577349 0.577349
vn 0.000000 0.000000 1.000000
vn -0.577349 0.577349 0.577349
vn -1.000000 0.000000 0.000000
vn -0.577349 0.577349 -0.577349
vn 0.000000 1.000000 0.000000
vn 0.000000 0.000000 -1.000000
usemtl lighttan.006
s 1
f 99//99 100//100 101//101
f 102//102 99//99 101//101
f 103//103 102//102 101//101
f 100//100 103//103 101//101
f 99//99 102//102 104//104
f 102//102 105//105 104//104
f 105//105 106//106 104//104
f 106//106 99//99 104//104
f 100//100 99//99 107//107
f 99//99 106//106 107//107
f 106//106 108//108 107//107
f 108//108 100//100 107//107
f 103//103 100//100 109//109
f 100//100 108//108 109//109
f 108//108 110//110 109//109
f 110//110 103//103 109//109
f 108//108 106//106 111//111
f 106//106 105//105 111//111
f 105//105 110//110 111//111
f 110//110 108//108 111//111
f 102//102 103//103 112//112
f 103//103 110//110 112//112
f 110//110 105//105 112//112
f 105//105 102//102 112//112
o Cube_8_1.001
v 8.534790 -5.486870 0.228709
v 4.486570 -5.486870 0.228709
v 6.510680 -5.486870 -0.000001
v 8.534790 -5.486870 -0.228711
v 4.486570 -5.486870 -0.228711
v 8.534790 -5.258160 -0.000001
v 8.534790 -5.029450 -0.228711
v 8.534790 -5.029450 0.228709
v 6.510680 -5.258160 0.228709
v 4.486570 -5.029450 0.228709
v 4.486570 -5.258160 -0.000001
v 4.486570 -5.029450 -0.228711
v 6.510680 -5.029450 -0.000001
v 6.510680 -5.258160 -0.228711
vn 0.577349 -0.577349 0.577349
vn -0.577349 -0.577349 0.577349
vn 0.000000 -1.000000 0.000000
vn 0.577349 -0.577349 -0.577349
vn -0.577349 -0.577349 -0.577349
vn 1.000000 0.000000 0.000000
vn 0.577349 0.577349 -0.577349
vn 0.577349 0.577349 0.577349
vn 0.000000 0.000000 1.000000
vn -0.577349 0.577349 0.577349
vn -1.000000 0.000000 0.000000
vn -0.577349 0.577349 -0.577349
vn 0.000000 1.000000 0.000000
vn 0.000000 0.000000 -1.000000
usemtl lighttan.006
s 1
f 113//113 114//114 115//115
f 116//116 113//113 115//115
f 117//117 116//116 115//115
f 114//114 117//117 115//115
f 113//113 116//116 118//118
f 116//116 119//119 118//118
f 119//119 120//120 118//118
f 120//120 113//113 118//118
f 114//114 113//113 121//121
f 113//113 120//120 121//121
f 120//120 122//122 121//121
f 122//122 114//114 121//121
f 117//117 114//114 123//123
f 114//114 122//122 123//123
f 122//122 124//124 123//123
f 124//124 117//117 123//123
f 122//122 120//120 125//125
f 120//120 119//119 125//125
f 119//119 124//124 125//125
f 124//124 122//122 125//125
f 116//116 117//117 126//126
f 117//117 124//124 126//126
f 124//124 119//119 126//126
f 119//119 116//116 126//126
o Cube_8.001
v 8.535770 8.559590 0.228711
v 4.487560 8.559590 0.228711
v 6.511660 8.559590 0.000001
v 8.535770 8.559590 -0.228709
v 4.487560 8.559590 -0.228709
v 8.535770 8.788310 0.000001
v 8.535770 9.017020 -0.228709
v 8.535770 9.017020 0.228711
v 6.511660 8.788310 0.228711
v 4.487560 9.017020 0.228711
v 4.487560 8.788310 0.000001
v 4.487560 9.017020 -0.228709
v 6.511660 9.017020 0.000001
v 6.511660 8.788310 -0.228709
vn 0.577349 -0.577349 0.577349
vn -0.577349 -0.577349 0.577349
vn 0.000000 -1.000000 0.000000
vn 0.577349 -0.577349 -0.577349
vn -0.577349 -0.577349 -0.577349
vn 1.000000 0.000000 0.000000
vn 0.577349 0.577349 -0.577349
vn 0.577349 0.577349 0.577349
vn 0.000000 0.000000 1.000000
vn -0.577349 0.577349 0.577349
vn -1.000000 0.000000 0.000000
vn -0.577349 0.577349 -0.577349
vn 0.000000 1.000000 0.000000
vn 0.000000 0.000000 -1.000000
usemtl lighttan.006
s 1
f 127//127 128//128 129//129
f 130//130 127//127 129//129
f 131//131 130//130 129//129
f 128//128 131//131 129//129
f 127//127 130//130 132//132
f 130//130 133//133 132//132
f 133//133 134//134 132//132
f 134//134 127//127 132//132
f 128//128 127//127 135//135
f 127//127 134//134 135//135
f 134//134 136//136 135//135
f 136//136 128//128 135//135
f 131//131 128//128 137//137
f 128//128 136//136 137//137
f 136//136 138//138 137//137
f 138//138 131//131 137//137
f 136//136 134//134 139//139
f 134//134 133//133 139//139
f 133//133 138//138 139//139
f 138//138 136//136 139//139
f 130//130 131//131 140//140
f 131//131 138//138 140//140
f 138//138 133//133 140//140
f 133//133 130//130 140//140
o Cube_10.001
v 8.433340 6.248070 0.148661
v 4.545230 6.248070 0.148661
v 6.489290 6.248070 0.000001
v 8.433340 6.248070 -0.148659
v 4.545230 6.248070 -0.148659
v 8.433340 6.350990 0.000001
v 8.433340 6.453910 -0.148659
v 8.433340 6.453910 0.148661
v 6.489290 6.350990 0.148661
v 4.545230 6.453910 0.148661
v 4.545230 6.350990 0.000001
v 4.545230 6.453910 -0.148659
v 6.489290 6.453910 0.000001
v 6.489290 6.350990 -0.148659
vn 0.577349 -0.577349 0.577349
vn -0.577349 -0.577319 0.577349
vn 0.000000 -1.000000 0.000000
vn 0.577349 -0.577349 -0.577349
vn -0.577349 -0.577349 -0.577349
vn 1.000000 0.000000 0.000000
vn 0.577349 0.577349 -0.577349
vn 0.577349 0.577349 0.577349
vn 0.000000 0.000000 1.000000
vn -0.577349 0.577349 0.577349
vn -1.000000 0.000000 0.000000
vn -0.577349 0.577319 -0.577349
vn 0.000000 1.000000 0.000000
vn 0.000000 0.000000 -1.000000
usemtl lighttan.006
s 1
f 141//141 142//142 143//143
f 144//144 141//141 143//143
f 145//145 144//144 143//143
f 142//142 145//145 143//143
f 141//141 144//144 146//146
f 144//144 147//147 146//146
f 147//147 148//148 146//146
f 148//148 141//141 146//146
f 142//142 141//141 149//149
f 141//141 148//148 149//149
f 148//148 150//150 149//149
f 150//150 142//142 149//149
f 145//145 142//142 151//151
f 142//142 150//150 151//151
f 150//150 152//152 151//151
f 152//152 145//145 151//151
f 150//150 148//148 153//153
f 148//148 147//147 153//153
f 147//147 152//152 153//153
f 152//152 150//150 153//153
f 144//144 145//145 154//154
f 145//145 152//152 154//154
f 152//152 147//147 154//154
f 147//147 144//144 154//154
o frame_2
v 8.991340 9.016400 0.198581
v 4.074750 9.016400 0.198581
v 6.533050 9.016400 0.000001
v 8.991340 9.016400 -0.198579
v 4.074750 9.016400 -0.198579
v 8.991340 9.214980 0.000002
v 8.991340 9.413560 -0.198578
v 8.991340 9.413560 0.198582
v 6.533050 9.214980 0.198582
v 4.074750 9.413560 0.198582
v 4.074750 9.214980 0.000002
v 4.074750 9.413560 -0.198578
v 6.533050 9.413560 0.000002
v 6.533050 9.214980 -0.198578
vn 0.577349 -0.577349 0.577349
vn -0.577349 -0.577349 0.577349
vn 0.000000 -0.999969 0.000000
vn 0.577349 -0.577349 -0.577349
vn -0.577349 -0.577349 -0.577349
vn 1.000000 0.000000 0.000000
vn 0.577349 0.577349 -0.577349
vn 0.577349 0.577349 0.577349
vn 0.000000 0.000000 0.999969
vn -0.577349 0.577349 0.577349
vn -1.000000 0.000000 0.000000
vn -0.577349 0.577349 -0.577349
vn 0.000000 0.999969 0.000000
vn 0.000000 0.000000 -1.000000
usemtl lighttan.006
s 1
f 155//155 156//156 157//157
f 158//158 155//155 157//157
f 159//159 158//158 157//157
f 156//156 159//159 157//157
f 155//155 158//158 160//160
f 158//158 161//161 160//160
f 161//161 162//162 160//160
f 162//162 155//155 160//160
f 156//156 155//155 163//163
f 155//155 162//162 163//163
f 162//162 164//164 163//163
f 164//164 156//156 163//163
f 159//159 156//156 165//165
f 156//156 164//164 165//165
f 164//164 166//166 165//165
f 166//166 159//159 165//165
f 164//164 162//162 167//167
f 162//162 161//161 167//167
f 161//161 166//166 167//167
f 166//166 164//164 167//167
f 158//158 159//159 168//168
f 159//159 166//166 168//168
f 166//166 161//161 168//168
f 161//161 158//158 168//168
o frame_1
v 8.995060 -5.480010 0.231669
v 8.531720 -5.480010 0.231669
v 8.763390 -5.480010 -0.000001
v 8.995060 -5.480010 -0.231671
v 8.531720 -5.480010 -0.231671
v 8.995060 1.965220 0.000000
v 8.995060 9.410460 -0.231668
v 8.995060 9.410460 0.231672
v 8.763390 1.965220 0.231670
v 8.531720 9.410460 0.231672
v 8.531720 1.965220 0.000000
v 8.531720 9.410460 -0.231668
v 8.763390 9.410460 0.000002
v 8.763390 1.965220 -0.231670
vn 0.577349 -0.577349 0.577349
vn -0.577349 -0.577349 0.577349
vn 0.000000 -1.000000 0.000000
vn 0.577349 -0.577349 -0.577349
vn -0.577349 -0.577349 -0.577349
vn 1.000000 0.000000 0.000000
vn 0.577349 0.577349 -0.577349
vn 0.577349 0.577349 0.577349
vn 0.000000 0.000000 1.000000
vn -0.577349 0.577349 0.577349
vn -1.000000 0.000000 0.000000
vn -0.577349 0.577349 -0.577349
vn 0.000000 1.000000 0.000000
vn 0.000000 0.000000 -1.000000
usemtl lighttan.006
s 1
f 169//169 170//170 171//171
f 172//172 169//169 171//171
f 173//173 172//172 171//171
f 170//170 173//173 171//171
f 169//169 172//172 174//174
f 172//172 175//175 174//174
f 175//175 176//176 174//174
f 176//176 169//169 174//174
f 170//170 169//169 177//177
f 169//169 176//176 177//177
f 176//176 178//178 177//177
f 178//178 170//170 177//177
f 173//173 170//170 179//179
f 170//170 178//178 179//179
f 178//178 180//180 179//179
f 180//180 173//173 179//179
f 178//178 176//176 181//181
f 176//176 175//175 181//181
f 175//175 180//180 181//181
f 180//180 178//178 181//181
f 172//172 173//173 182//182
f 173//173 180//180 182//182
f 180//180 175//175 182//182
f 175//175 172//172 182//182
o Cube_10_3.001
v 8.410470 -0.796290 0.148660
v 4.522350 -0.796290 0.148660
v 6.466410 -0.796290 -0.000000
v 8.410470 -0.796290 -0.148660
v 4.522350 -0.796290 -0.148660
v 8.410470 -0.693370 -0.000000
v 8.410470 -0.590450 -0.148660
v 8.410470 -0.590450 0.148660
v 6.466410 -0.693370 0.148660
v 4.522350 -0.590450 0.148660
v 4.522350 -0.693370 -0.000000
v 4.522350 -0.590450 -0.148660
v 6.466410 -0.590450 -0.000000
v 6.466410 -0.693370 -0.148660
vn 0.577349 -0.577349 0.577349
vn -0.577349 -0.577349 0.577349
vn 0.000000 -1.000000 0.000000
vn 0.577349 -0.577349 -0.577349
vn -0.577349 -0.577349 -0.577349
vn 1.000000 0.000000 0.000000
vn 0.577349 0.577349 -0.577349
vn 0.577349 0.577349 0.577349
vn 0.000000 0.000000 1.000000
vn -0.577349 0.577349 0.577349
vn -1.000000 0.000000 0.000000
vn -0.577349 0.577349 -0.577349
vn 0.000000 1.000000 0.000000
vn 0.000000 0.000000 -1.000000
usemtl lighttan.006
s 1
f 183//183 184//184 185//185
f 186//186 183//183 185//185
f 187//187 186//186 185//185
f 184//184 187//187 185//185
f 183//183 186//186 188//188
f 186//186 189//189 188//188
f 189//189 190//190 188//188
f 190//190 183//183 188//188
f 184//184 183//183 191//191
f 183//183 190//190 191//191
f 190//190 192//192 191//191
f 192//192 184//184 191//191
f 187//187 184//184 193//193
f 184//184 192//192 193//193
f 192//192 194//194 193//193
f 194//194 187//187 193//193
f 192//192 190//190 195//195
f 190//190 189//189 195//195
f 189//189 194//194 195//195
f 194//194 192//192 195//195
f 186//186 187//187 196//196
f 187//187 194//194 196//196
f 194//194 189//189 196//196
f 189//189 186//186 196//196
