# Blender v2.74 (sub 0) OBJ File: ''
# www.blender.org
mtllib pianoDroit.mtl
o Couche:OBJECT002
v 1.560000 2.062007 0.132460
v -1.200000 2.013707 0.119520
v 1.560000 2.013707 0.119520
v -1.200000 2.062007 0.132460
v 1.560000 2.018887 0.100200
v -1.200000 2.067187 0.113140
v 1.560000 2.067187 0.113140
v -1.200000 2.018887 0.100200
vn 0.000000 -0.258800 0.965900
vn 0.000000 0.258800 -0.965900
vn -1.000000 0.000000 0.000000
vn 1.000000 0.000000 0.000000
vn 0.000000 0.965900 0.259000
vn 0.000000 -0.965900 -0.259000
usemtl flblack
s 1
f 1//1 2//1 3//1
f 1//1 4//1 2//1
f 5//2 6//2 7//2
f 5//2 8//2 6//2
f 2//3 6//3 8//3
f 2//3 4//3 6//3
f 5//4 1//4 3//4
f 5//4 7//4 1//4
f 4//5 7//5 6//5
f 4//5 1//5 7//5
f 8//6 3//6 2//6
f 8//6 5//6 3//6
o Couche:OBJECT012
v 0.050000 0.227597 -0.250000
v -0.030000 0.227597 0.040000
v 0.050000 0.227597 0.040000
v -0.030000 0.227597 -0.250000
v 0.050000 0.187597 0.040000
v -0.030000 0.187597 -0.250000
v 0.050000 0.187597 -0.250000
v -0.030000 0.187597 0.040000
vn 0.000000 1.000000 0.000000
vn 0.000000 -1.000000 0.000000
vn -1.000000 0.000000 0.000000
vn 1.000000 0.000000 0.000000
vn 0.000000 0.000000 -1.000000
vn 0.000000 0.000000 1.000000
usemtl gold
s 1
f 9//7 10//7 11//7
f 9//7 12//7 10//7
f 13//8 14//8 15//8
f 13//8 16//8 14//8
f 10//9 14//9 16//9
f 10//9 12//9 14//9
f 13//10 9//10 11//10
f 13//10 15//10 9//10
f 12//11 15//11 14//11
f 12//11 9//11 15//11
f 16//12 11//12 10//12
f 16//12 13//12 11//12
o Couche:OBJECT000
v 0.840000 1.772227 0.054810
v -0.520000 1.723937 0.041870
v 0.840000 1.723937 0.041870
v -0.520000 1.772227 0.054810
v 0.840000 1.729107 0.022550
v -0.520000 1.777407 0.035490
v 0.840000 1.777407 0.035490
v -0.520000 1.729107 0.022550
vn 0.000000 -0.258800 0.965900
vn 0.000000 0.258800 -0.965900
vn -1.000000 0.000000 0.000000
vn 1.000000 -0.000000 0.000000
vn 0.000000 0.965900 0.259000
vn 0.000000 -0.966000 -0.258500
vn -0.000000 -0.965900 -0.258800
usemtl flblack
s 1
f 17//13 18//13 19//13
f 17//13 20//13 18//13
f 21//14 22//14 23//14
f 21//14 24//14 22//14
f 18//15 22//15 24//15
f 18//15 20//15 22//15
f 21//16 17//16 19//16
f 21//16 23//16 17//16
f 20//17 23//17 22//17
f 20//17 17//17 23//17
f 24//18 19//18 18//18
f 24//18 21//19 19//18
o Couche:OBJECT010
v 0.370000 0.227597 -0.250000
v 0.290000 0.227597 0.040000
v 0.370000 0.227597 0.040000
v 0.290000 0.227597 -0.250000
v 0.370000 0.187597 0.040000
v 0.290000 0.187597 -0.250000
v 0.370000 0.187597 -0.250000
v 0.290000 0.187597 0.040000
vn 0.000000 1.000000 0.000000
vn 0.000000 -1.000000 0.000000
vn -1.000000 0.000000 0.000000
vn 1.000000 0.000000 0.000000
vn 0.000000 0.000000 -1.000000
vn 0.000000 0.000000 1.000000
usemtl gold
s 1
f 25//20 26//20 27//20
f 25//20 28//20 26//20
f 29//21 30//21 31//21
f 29//21 32//21 30//21
f 26//22 30//22 32//22
f 26//22 28//22 30//22
f 29//23 25//23 27//23
f 29//23 31//23 25//23
f 28//24 31//24 30//24
f 28//24 25//24 31//24
f 32//25 27//25 26//25
f 32//25 29//25 27//25
o Couche:OBJECT007
v 1.540000 1.397597 -0.460000
v -1.220000 1.397597 -0.160000
v 1.540000 1.397597 -0.160000
v -1.220000 1.397597 -0.460000
v 1.540000 1.357597 -0.160000
v -1.220000 1.357597 -0.460000
v 1.540000 1.357597 -0.460000
v -1.220000 1.357597 -0.160000
vn 0.000000 1.000000 0.000000
vn 0.000000 -1.000000 0.000000
vn -1.000000 0.000000 0.000000
vn 1.000000 0.000000 0.000000
vn 0.000000 0.000000 -1.000000
vn 0.000000 0.000000 1.000000
usemtl bone2
s 1
f 33//26 34//26 35//26
f 33//26 36//26 34//26
f 37//27 38//27 39//27
f 37//27 40//27 38//27
f 34//28 38//28 40//28
f 34//28 36//28 38//28
f 37//29 33//29 35//29
f 37//29 39//29 33//29
f 36//30 39//30 38//30
f 36//30 33//30 39//30
f 40//31 35//31 34//31
f 40//31 37//31 35//31
o Couche:OBJECT003
v -1.280000 1.207597 0.040000
v 1.600000 1.207597 -0.500000
v 1.600000 1.207597 0.040000
v -1.280000 1.207597 -0.500000
v 1.600000 1.357597 0.040000
v 1.600000 1.357597 -0.500000
v -1.280000 1.357597 -0.500000
v -1.280000 1.357597 0.040000
vn 0.000000 -1.000000 0.000000
vn 1.000000 0.000000 0.000000
vn -1.000000 0.000000 0.000000
vn 0.000000 -0.000000 1.000000
vn 0.000000 0.000000 -1.000000
vn 0.000000 1.000000 0.000000
usemtl flblack
s 1
f 41//32 42//32 43//32
f 41//32 44//32 42//32
f 42//33 45//33 43//33
f 42//33 46//33 45//33
f 41//34 47//34 44//34
f 41//34 48//34 47//34
f 43//35 48//35 41//35
f 43//35 45//35 48//35
f 44//36 46//36 42//36
f 44//36 47//36 46//36
f 47//37 45//37 46//37
f 47//37 48//37 45//37
o Couche:OBJECT004
v 1.600000 1.357597 -0.500000
v 1.600000 1.567597 0.040000
v 1.600000 1.357597 0.040000
v 1.600000 1.447597 -0.500000
v 1.540000 1.567597 0.040000
v 1.540000 1.357597 0.040000
v 1.540000 1.447597 -0.500000
v 1.540000 1.357597 -0.500000
vn 1.000000 0.000000 0.000000
vn 0.000000 -0.000000 1.000000
vn 0.000000 0.000000 -1.000000
vn 0.000000 0.976200 -0.216900
vn 0.000000 -1.000000 0.000000
vn -1.000000 0.000000 0.000000
usemtl flblack
s 1
f 49//38 50//38 51//38
f 49//38 52//38 50//38
f 51//39 53//39 54//39
f 51//39 50//39 53//39
f 49//40 55//40 52//40
f 49//40 56//40 55//40
f 52//41 53//41 50//41
f 52//41 55//41 53//41
f 51//42 56//42 49//42
f 51//42 54//42 56//42
f 54//43 55//43 56//43
f 54//43 53//43 55//43
o Couche:OBJECT008
v -1.280000 1.567597 0.640000
v 1.600000 1.567597 0.040000
v -1.280000 1.567597 0.040000
v 1.600000 1.567597 0.640000
v -1.280000 0.047597 0.040000
v 1.600000 0.047597 0.640000
v -1.280000 0.047597 0.640000
v 1.600000 0.047597 0.040000
vn 0.000000 1.000000 0.000000
vn 0.000000 -1.000000 0.000000
vn 1.000000 -0.000000 0.000000
vn -1.000000 0.000000 0.000000
vn 0.000000 -0.000000 1.000000
vn 0.000000 0.000000 -1.000000
usemtl flblack
s 1
f 57//44 58//44 59//44
f 57//44 60//44 58//44
f 61//45 62//45 63//45
f 61//45 64//45 62//45
f 58//46 62//46 64//46
f 58//46 60//46 62//46
f 61//47 57//47 59//47
f 61//47 63//47 57//47
f 60//48 63//48 62//48
f 60//48 57//48 63//48
f 64//49 59//49 58//49
f 64//49 61//49 59//49
o Couche:OBJECT005
v -1.280000 1.357597 0.040000
v -1.280000 1.447597 -0.500000
v -1.280000 1.357597 -0.500000
v -1.280000 1.567597 0.040000
v -1.220000 1.567597 0.040000
v -1.220000 1.357597 0.040000
v -1.220000 1.447597 -0.500000
v -1.220000 1.357597 -0.500000
vn -1.000000 0.000000 0.000000
vn 0.000000 -0.000000 1.000000
vn 0.000000 0.000000 -1.000000
vn 0.000000 0.976200 -0.216900
vn 0.000000 -1.000000 0.000000
vn 1.000000 -0.000000 0.000000
usemtl flblack
s 1
f 65//50 66//50 67//50
f 65//50 68//50 66//50
f 65//51 69//51 68//51
f 65//51 70//51 69//51
f 67//52 71//52 72//52
f 67//52 66//52 71//52
f 68//53 71//53 66//53
f 68//53 69//53 71//53
f 67//54 70//54 65//54
f 67//54 72//54 70//54
f 72//55 69//55 70//55
f 72//55 71//55 69//55
o Couche:OBJECT001
v 1.550000 2.070977 0.176270
v -1.210000 1.568687 0.041680
v 1.550000 1.568687 0.041680
v -1.210000 2.070977 0.176270
v 1.550000 1.579047 0.003050
v -1.210000 2.081327 0.137630
v 1.550000 2.081327 0.137630
v -1.210000 1.579047 0.003050
vn 0.000000 -0.258800 0.965900
vn 0.000000 0.258800 -0.965900
vn -1.000000 0.000000 0.000000
vn 1.000000 0.000000 0.000000
vn 0.000000 0.965900 0.258700
vn 0.000000 -0.965900 -0.259000
usemtl flblack
s 1
f 73//56 74//56 75//56
f 73//56 76//56 74//56
f 77//57 78//57 79//57
f 77//57 80//57 78//57
f 74//58 78//58 80//58
f 74//58 76//58 78//58
f 77//59 73//59 75//59
f 77//59 79//59 73//59
f 76//60 79//60 78//60
f 76//60 73//60 79//60
f 80//61 75//61 74//61
f 80//61 77//61 75//61
o Couche:OBJECT006
v 1.540000 1.497597 0.024000
v -1.220000 1.497597 0.040000
v 1.540000 1.497597 0.040000
v -1.220000 1.497597 0.024000
v 1.540000 1.357597 0.040000
v -1.220000 1.357597 -0.160000
v 1.540000 1.357597 -0.160000
v -1.220000 1.357597 0.040000
v -1.220000 1.417597 -0.160000
v 1.540000 1.417597 -0.160000
vn 0.000000 1.000000 0.000000
vn 0.000000 -1.000000 0.000000
vn -1.000000 -0.000000 0.000000
vn 1.000000 -0.000000 0.000000
vn 0.000000 0.000000 -1.000000
vn 0.000000 -0.000000 1.000000
vn 0.000000 0.917100 -0.398700
usemtl flblack
s 1
f 81//62 82//62 83//62
f 81//62 84//62 82//62
f 85//63 86//63 87//63
f 85//63 88//63 86//63
f 89//64 82//64 84//64
f 89//64 88//64 82//64
f 89//64 86//64 88//64
f 83//65 90//65 81//65
f 83//65 87//65 90//65
f 83//65 85//65 87//65
f 90//66 86//66 89//66
f 90//66 87//66 86//66
f 82//67 85//67 83//67
f 82//67 88//67 85//67
f 89//68 81//68 90//68
f 89//68 84//68 81//68
o Couche:OBJECT009
v -1.280000 2.267597 0.240000
v 1.600000 2.267597 0.640000
v 1.600000 2.267597 0.240000
v -1.280000 2.267597 0.640000
v -1.280000 1.567597 0.640000
v 1.600000 1.567597 0.040000
v 1.600000 1.567597 0.640000
v -1.280000 1.567597 0.040000
vn 0.000000 1.000000 0.000000
vn 0.000000 -1.000000 0.000000
vn 1.000000 -0.000000 0.000000
vn -1.000000 -0.000000 0.000000
vn 0.000000 -0.000000 1.000000
vn 0.000000 0.274700 -0.961500
usemtl flblack
s 1
f 91//69 92//69 93//69
f 91//69 94//69 92//69
f 95//70 96//70 97//70
f 95//70 98//70 96//70
f 96//71 92//71 97//71
f 96//71 93//71 92//71
f 91//72 95//72 94//72
f 91//72 98//72 95//72
f 97//73 94//73 95//73
f 97//73 92//73 94//73
f 93//74 98//74 91//74
f 93//74 96//74 98//74
o Couche:OBJECT011
v 0.210000 0.227597 -0.250000
v 0.130000 0.227597 0.040000
v 0.210000 0.227597 0.040000
v 0.130000 0.227597 -0.250000
v 0.210000 0.187597 0.040000
v 0.130000 0.187597 -0.250000
v 0.210000 0.187597 -0.250000
v 0.130000 0.187597 0.040000
vn 0.000000 1.000000 0.000000
vn 0.000000 -1.000000 0.000000
vn -1.000000 0.000000 0.000000
vn 1.000000 0.000000 0.000000
vn 0.000000 0.000000 -1.000000
vn 0.000000 0.000000 1.000000
usemtl gold
s 1
f 99//75 100//75 101//75
f 99//75 102//75 100//75
f 103//76 104//76 105//76
f 103//76 106//76 104//76
f 100//77 104//77 106//77
f 100//77 102//77 104//77
f 103//78 99//78 101//78
f 103//78 105//78 99//78
f 102//79 105//79 104//79
f 102//79 99//79 105//79
f 106//80 101//80 100//80
f 106//80 103//80 101//80
