# Blender v2.69 (sub 0) OBJ File: 'projetVide.blend'
# www.blender.org
mtllib pianoDroit.mtl
o Couche:OBJECT000
v 0.840000 1.772227 0.054810
v -0.520000 1.723937 0.041870
v 0.840000 1.723937 0.041870
v -0.520000 1.772227 0.054810
v 0.840000 1.729107 0.022550
v -0.520000 1.777407 0.035490
v 0.840000 1.777407 0.035490
v -0.520000 1.729107 0.022550
vn 0.577349 0.408185 0.707114
vn -0.577349 -0.707022 0.408338
vn 0.577349 -0.707022 0.408338
vn -0.577349 0.408185 0.707114
vn 0.577319 -0.408368 -0.707022
vn -0.577319 0.707114 -0.408185
vn 0.577319 0.707114 -0.408185
vn -0.577319 -0.408368 -0.707022
usemtl flblack
s 1
f 1//1 2//2 3//3
f 1//1 4//4 2//2
f 5//5 6//6 7//7
f 5//5 8//8 6//6
f 2//2 6//6 8//8
f 2//2 4//4 6//6
f 5//5 1//1 3//3
f 7//7 1//1 5//5
f 4//4 7//7 6//6
f 4//4 1//1 7//7
f 8//8 3//3 2//2
f 8//8 5//5 3//3
o Couche:OBJECT004
v 1.600000 1.357597 -0.500000
v 1.600000 1.567597 0.040000
v 1.600000 1.357597 0.040000
v 1.600000 1.447597 -0.500000
v 1.540000 1.567597 0.040000
v 1.540000 1.357597 0.040000
v 1.540000 1.447597 -0.500000
v 1.540000 1.357597 -0.500000
vn 0.577349 -0.577349 -0.577349
vn 0.566698 0.642659 0.515519
vn 0.577349 -0.577349 0.577349
vn 0.589709 0.505325 -0.629963
vn -0.566698 0.642659 0.515519
vn -0.577349 -0.577349 0.577349
vn -0.589709 0.505325 -0.629933
vn -0.577349 -0.577349 -0.577349
usemtl flblack
s 1
f 9//9 10//10 11//11
f 9//9 12//12 10//10
f 11//11 13//13 14//14
f 11//11 10//10 13//13
f 9//9 15//15 12//12
f 9//9 16//16 15//15
f 12//12 13//13 10//10
f 12//12 15//15 13//13
f 16//16 9//9 11//11
f 11//11 14//14 16//16
f 14//14 15//15 16//16
f 14//14 13//13 15//15
o Couche:OBJECT002
v 1.560000 2.062007 0.132460
v -1.200000 2.013707 0.119520
v 1.560000 2.013707 0.119520
v -1.200000 2.062007 0.132460
v 1.560000 2.018887 0.100200
v -1.200000 2.067187 0.113140
v 1.560000 2.067187 0.113140
v -1.200000 2.018887 0.100200
vn 0.577349 0.408185 0.707114
vn -0.577319 -0.707114 0.408185
vn 0.577319 -0.707114 0.408185
vn -0.577349 0.408185 0.707114
vn 0.577349 -0.408185 -0.707114
vn -0.577319 0.707114 -0.408185
vn 0.577319 0.707114 -0.408185
vn -0.577349 -0.408185 -0.707114
usemtl flblack
s 1
f 17//17 18//18 19//19
f 17//17 20//20 18//18
f 21//21 22//22 23//23
f 21//21 24//24 22//22
f 18//18 22//22 24//24
f 18//18 20//20 22//22
f 21//21 17//17 19//19
f 23//23 17//17 21//21
f 20//20 23//23 22//22
f 20//20 17//17 23//23
f 24//24 19//19 18//18
f 24//24 21//21 19//19
o Couche:OBJECT007
v 1.540000 1.397597 -0.460000
v -1.220000 1.397597 -0.160000
v 1.540000 1.397597 -0.160000
v -1.220000 1.397597 -0.460000
v 1.540000 1.357597 -0.160000
v -1.220000 1.357597 -0.460000
v 1.540000 1.357597 -0.460000
v -1.220000 1.357597 -0.160000
vn 0.577349 0.577319 -0.577349
vn -0.577349 0.577349 0.577349
vn 0.577349 0.577349 0.577349
vn -0.577349 0.577319 -0.577349
vn 0.577349 -0.577349 0.577349
vn -0.577349 -0.577349 -0.577349
vn 0.577319 -0.577349 -0.577319
vn -0.577349 -0.577349 0.577349
usemtl bone2
s 1
f 25//25 26//26 27//27
f 25//25 28//28 26//26
f 29//29 30//30 31//31
f 29//29 32//32 30//30
f 26//26 30//30 32//32
f 26//26 28//28 30//30
f 29//29 25//25 27//27
f 31//31 25//25 29//29
f 28//28 31//31 30//30
f 28//28 25//25 31//31
f 32//32 27//27 26//26
f 32//32 29//29 27//27
o Couche:OBJECT012
v 0.050000 0.227597 -0.250000
v -0.030000 0.227597 0.040000
v 0.050000 0.227597 0.040000
v -0.030000 0.227597 -0.250000
v 0.050000 0.187597 0.040000
v -0.030000 0.187597 -0.250000
v 0.050000 0.187597 -0.250000
v -0.030000 0.187597 0.040000
vn 0.577349 0.577349 -0.577349
vn -0.577349 0.577349 0.577349
vn 0.577349 0.577349 0.577349
vn -0.577349 0.577349 -0.577349
vn 0.577349 -0.577349 0.577349
vn -0.577349 -0.577349 -0.577349
vn 0.577349 -0.577349 -0.577349
vn -0.577349 -0.577349 0.577349
usemtl gold
s 1
f 33//33 34//34 35//35
f 33//33 36//36 34//34
f 37//37 38//38 39//39
f 37//37 40//40 38//38
f 34//34 38//38 40//40
f 34//34 36//36 38//38
f 37//37 33//33 35//35
f 39//39 33//33 37//37
f 36//36 39//39 38//38
f 36//36 33//33 39//39
f 40//40 35//35 34//34
f 40//40 37//37 35//35
o Couche:OBJECT011
v 0.210000 0.227597 -0.250000
v 0.130000 0.227597 0.040000
v 0.210000 0.227597 0.040000
v 0.130000 0.227597 -0.250000
v 0.210000 0.187597 0.040000
v 0.130000 0.187597 -0.250000
v 0.210000 0.187597 -0.250000
v 0.130000 0.187597 0.040000
vn 0.577349 0.577349 -0.577349
vn -0.577349 0.577349 0.577349
vn 0.577349 0.577349 0.577349
vn -0.577349 0.577349 -0.577349
vn 0.577349 -0.577349 0.577349
vn -0.577349 -0.577349 -0.577349
vn 0.577349 -0.577349 -0.577349
vn -0.577349 -0.577349 0.577349
usemtl gold
s 1
f 41//41 42//42 43//43
f 41//41 44//44 42//42
f 45//45 46//46 47//47
f 45//45 48//48 46//46
f 42//42 46//46 48//48
f 42//42 44//44 46//46
f 45//45 41//41 43//43
f 47//47 41//41 45//45
f 44//44 47//47 46//46
f 44//44 41//41 47//47
f 48//48 43//43 42//42
f 48//48 45//45 43//43
o Couche:OBJECT010
v 0.370000 0.227597 -0.250000
v 0.290000 0.227597 0.040000
v 0.370000 0.227597 0.040000
v 0.290000 0.227597 -0.250000
v 0.370000 0.187597 0.040000
v 0.290000 0.187597 -0.250000
v 0.370000 0.187597 -0.250000
v 0.290000 0.187597 0.040000
vn 0.577349 0.577349 -0.577349
vn -0.577349 0.577349 0.577349
vn 0.577349 0.577349 0.577349
vn -0.577349 0.577349 -0.577349
vn 0.577349 -0.577349 0.577349
vn -0.577349 -0.577349 -0.577349
vn 0.577349 -0.577349 -0.577349
vn -0.577349 -0.577349 0.577349
usemtl gold
s 1
f 49//49 50//50 51//51
f 49//49 52//52 50//50
f 53//53 54//54 55//55
f 53//53 56//56 54//54
f 50//50 54//54 56//56
f 50//50 52//52 54//54
f 53//53 49//49 51//51
f 55//55 49//49 53//53
f 52//52 55//55 54//54
f 52//52 49//49 55//55
f 56//56 51//51 50//50
f 56//56 53//53 51//51
o Couche:OBJECT006
v 1.540000 1.497597 0.024000
v -1.220000 1.497597 0.040000
v 1.540000 1.497597 0.040000
v -1.220000 1.497597 0.024000
v 1.540000 1.357597 0.040000
v -1.220000 1.357597 -0.160000
v 1.540000 1.357597 -0.160000
v -1.220000 1.357597 0.040000
v -1.220000 1.417597 -0.160000
v 1.540000 1.417597 -0.160000
vn 0.663991 0.732047 -0.152226
vn -0.577319 0.577349 0.577319
vn 0.577319 0.577349 0.577319
vn -0.663991 0.732047 -0.152226
vn 0.577349 -0.577349 0.577349
vn -0.577349 -0.577349 -0.577349
vn 0.577349 -0.577349 -0.577349
vn -0.577349 -0.577349 0.577349
vn -0.602008 0.437788 -0.667714
vn 0.602008 0.437788 -0.667714
usemtl flblack
s 1
f 57//57 58//58 59//59
f 57//57 60//60 58//58
f 61//61 62//62 63//63
f 61//61 64//64 62//62
f 65//65 58//58 60//60
f 65//65 64//64 58//58
f 65//65 62//62 64//64
f 66//66 57//57 59//59
f 59//59 63//63 66//66
f 59//59 61//61 63//63
f 66//66 62//62 65//65
f 66//66 63//63 62//62
f 58//58 61//61 59//59
f 58//58 64//64 61//61
f 65//65 57//57 66//66
f 60//60 57//57 65//65
o Couche:OBJECT009
v -1.280000 2.267597 0.240000
v 1.600000 2.267597 0.640000
v 1.600000 2.267597 0.240000
v -1.280000 2.267597 0.640000
v -1.280000 1.567597 0.640000
v 1.600000 1.567597 0.040000
v 1.600000 1.567597 0.640000
v -1.280000 1.567597 0.040000
vn -0.593402 0.642567 -0.484695
vn 0.577349 0.577349 0.577349
vn 0.593402 0.642567 -0.484695
vn -0.577349 0.577349 0.577349
vn -0.577349 -0.577349 0.577349
vn 0.564104 -0.497208 -0.659169
vn 0.577349 -0.577349 0.577349
vn -0.564104 -0.497208 -0.659169
usemtl flblack
s 1
f 67//67 68//68 69//69
f 67//67 70//70 68//68
f 71//71 72//72 73//73
f 71//71 74//74 72//72
f 72//72 68//68 73//73
f 72//72 69//69 68//68
f 67//67 71//71 70//70
f 67//67 74//74 71//71
f 73//73 70//70 71//71
f 73//73 68//68 70//70
f 74//74 67//67 69//69
f 69//69 72//72 74//74
o Couche:OBJECT008
v -1.280000 1.567597 0.640000
v 1.600000 1.567597 0.040000
v -1.280000 1.567597 0.040000
v 1.600000 1.567597 0.640000
v -1.280000 0.047597 0.040000
v 1.600000 0.047597 0.640000
v -1.280000 0.047597 0.640000
v 1.600000 0.047597 0.040000
vn -0.577349 0.577349 0.577349
vn 0.577349 0.577349 -0.577349
vn -0.577349 0.577349 -0.577349
vn 0.577349 0.577349 0.577349
vn -0.577349 -0.577349 -0.577349
vn 0.577349 -0.577349 0.577349
vn -0.577349 -0.577349 0.577349
vn 0.577349 -0.577349 -0.577349
usemtl flblack
s 1
f 75//75 76//76 77//77
f 75//75 78//78 76//76
f 79//79 80//80 81//81
f 79//79 82//82 80//80
f 76//76 80//80 82//82
f 76//76 78//78 80//80
f 79//79 75//75 77//77
f 81//81 75//75 79//79
f 78//78 81//81 80//80
f 78//78 75//75 81//81
f 82//82 77//77 76//76
f 82//82 79//79 77//77
o Couche:OBJECT001
v 1.550000 2.070977 0.176270
v -1.210000 1.568687 0.041680
v 1.550000 1.568687 0.041680
v -1.210000 2.070977 0.176270
v 1.550000 1.579047 0.003050
v -1.210000 2.081327 0.137630
v 1.550000 2.081327 0.137630
v -1.210000 1.579047 0.003050
vn 0.577319 0.408277 0.707083
vn -0.577319 -0.707144 0.408155
vn 0.577319 -0.707144 0.408155
vn -0.577319 0.408277 0.707083
vn 0.577349 -0.408155 -0.707114
vn -0.577349 0.707083 -0.408277
vn 0.577349 0.707083 -0.408277
vn -0.577349 -0.408155 -0.707114
usemtl flblack
s 1
f 83//83 84//84 85//85
f 83//83 86//86 84//84
f 87//87 88//88 89//89
f 87//87 90//90 88//88
f 84//84 88//88 90//90
f 84//84 86//86 88//88
f 87//87 83//83 85//85
f 89//89 83//83 87//87
f 86//86 89//89 88//88
f 86//86 83//83 89//89
f 90//90 85//85 84//84
f 90//90 87//87 85//85
o Couche:OBJECT003
v -1.280000 1.207597 0.040000
v 1.600000 1.207597 -0.500000
v 1.600000 1.207597 0.040000
v -1.280000 1.207597 -0.500000
v 1.600000 1.357597 0.040000
v 1.600000 1.357597 -0.500000
v -1.280000 1.357597 -0.500000
v -1.280000 1.357597 0.040000
vn -0.577349 -0.577349 0.577349
vn 0.577349 -0.577349 -0.577349
vn 0.577349 -0.577349 0.577349
vn -0.577349 -0.577349 -0.577349
vn 0.577349 0.577349 0.577349
vn 0.577349 0.577349 -0.577349
vn -0.577349 0.577349 -0.577349
vn -0.577349 0.577349 0.577349
usemtl flblack
s 1
f 91//91 92//92 93//93
f 91//91 94//94 92//92
f 92//92 95//95 93//93
f 92//92 96//96 95//95
f 91//91 97//97 94//94
f 91//91 98//98 97//97
f 98//98 91//91 93//93
f 93//93 95//95 98//98
f 94//94 96//96 92//92
f 94//94 97//97 96//96
f 97//97 95//95 96//96
f 97//97 98//98 95//95
o Couche:OBJECT005
v -1.280000 1.357597 0.040000
v -1.280000 1.447597 -0.500000
v -1.280000 1.357597 -0.500000
v -1.280000 1.567597 0.040000
v -1.220000 1.567597 0.040000
v -1.220000 1.357597 0.040000
v -1.220000 1.447597 -0.500000
v -1.220000 1.357597 -0.500000
vn -0.577349 -0.577349 0.577349
vn -0.589709 0.505325 -0.629933
vn -0.577349 -0.577349 -0.577349
vn -0.566698 0.642659 0.515519
vn 0.566698 0.642659 0.515519
vn 0.577349 -0.577349 0.577349
vn 0.589709 0.505325 -0.629933
vn 0.577349 -0.577349 -0.577349
usemtl flblack
s 1
f 99//99 100//100 101//101
f 99//99 102//102 100//100
f 99//99 103//103 102//102
f 99//99 104//104 103//103
f 101//101 105//105 106//106
f 101//101 100//100 105//105
f 102//102 105//105 100//100
f 102//102 103//103 105//105
f 104//104 99//99 101//101
f 101//101 106//106 104//104
f 106//106 103//103 104//104
f 106//106 105//105 103//103
