# Blender v2.69 (sub 0) OBJ File: 'projetVide.blend'
# www.blender.org
mtllib tableBasseBois.mtl
o Pied_arriere_droit_Pied_arriere_droit_black
v 44.698429 -0.816996 -19.661110
v 41.459709 -0.816996 -17.805241
v 40.906059 -0.816996 -18.358891
v 42.577110 -0.816995 -21.782431
v 36.759270 35.183002 -14.375242
v 39.379669 35.183002 -18.584982
v 37.801338 17.183002 -17.006659
v 37.404770 35.183002 -13.729742
v 41.500992 35.183002 -16.463663
v 41.527740 20.390982 -16.490416
v 40.384380 10.576474 -19.589699
v 39.922661 17.183002 -14.885336
v 42.505699 10.576474 -17.468378
v 36.110531 13.486913 -13.194527
v 35.973591 22.671711 -12.678075
v 35.650841 22.671711 -13.000825
v 39.406422 20.390984 -18.611736
vn 0.000000 -1.000000 -0.000000
vn -0.848631 0.028094 -0.528240
vn 0.000000 1.000000 -0.000000
vn 0.000000 1.000000 -0.000001
vn -0.520841 -0.152930 0.839844
vn -0.892042 -0.121154 -0.435411
vn 0.707104 0.002558 -0.707105
vn 0.707105 0.002557 -0.707104
vn 0.682288 0.262619 -0.682287
vn 0.682288 0.262620 -0.682286
vn 0.494799 -0.097820 0.863484
vn 0.707106 0.000001 0.707107
vn 0.707107 0.000001 0.707107
vn 0.707107 -0.000000 0.707106
vn 0.554973 0.024248 0.831515
vn -0.863905 -0.151678 0.480273
vn -0.634381 -0.441725 0.634382
vn 0.655851 -0.011576 0.754801
vn -0.700247 0.138963 0.700245
vn -0.700247 0.138962 0.700246
vn -0.700247 0.138963 0.700246
vn -0.765860 -0.024779 -0.642530
vn -0.707105 0.000000 -0.707108
vn -0.707106 0.000001 -0.707108
vn -0.707107 0.000000 -0.707107
vn 0.700189 0.139540 -0.700188
vn 0.700189 0.139540 -0.700189
vn 0.700189 0.139539 -0.700188
vn 0.707107 -0.000001 0.707106
vn 0.595041 -0.036274 0.802876
vn -0.706215 -0.050239 0.706213
vn -0.734381 -0.009493 -0.678671
usemtl black
s 1
f 1//1 2//1 3//1
f 4//1 1//1 3//1
f 5//2 6//2 7//2
f 6//3 5//4 8//4
f 3//5 5//5 7//5
f 4//6 3//6 7//6
f 9//7 10//8 6//7
f 11//9 1//10 4//10
f 2//11 1//11 12//11
f 1//12 13//13 12//14
f 9//15 8//15 12//15
f 8//16 2//16 12//16
f 3//17 2//17 14//17
f 8//18 15//18 2//18
f 5//19 16//20 8//21
f 14//22 16//22 3//22
f 6//23 17//23 7//24
f 9//3 6//3 8//4
f 7//24 11//25 4//25
f 13//13 10//14 12//14
f 1//10 11//9 13//9
f 11//26 10//27 13//28
f 6//7 10//8 17//8
f 17//27 10//27 11//26
f 7//24 17//23 11//25
f 12//14 10//14 9//29
f 2//30 15//30 14//30
f 8//21 16//20 15//20
f 15//31 16//31 14//31
f 3//32 16//32 5//32
o Etagère_du_bas_Etagère_du_bas_lighttannew
v 40.500000 8.999996 18.000002
v -40.500000 8.999996 18.000002
v 0.000000 9.000000 0.000001
v 40.500000 9.000004 -17.999998
v -40.500000 9.000004 -17.999998
v 40.500000 10.000000 0.000002
v 40.500000 11.000004 -17.999998
v 40.500000 10.999996 18.000002
v 0.000000 9.999996 18.000002
v -40.500000 10.999996 18.000002
v -40.500000 10.000000 0.000002
v -40.500000 11.000004 -17.999998
v 0.000000 11.000000 0.000002
v 0.000000 10.000004 -17.999998
vn 0.000000 -1.000000 -0.000000
vn 1.000000 0.000000 0.000000
vn 0.000000 0.000000 1.000000
vn -1.000000 0.000000 0.000000
vn 0.000000 1.000000 0.000000
vn 0.000000 0.000000 -1.000000
usemtl lighttannew
s 1
f 18//33 19//33 20//33
f 21//33 18//33 20//33
f 22//33 21//33 20//33
f 19//33 22//33 20//33
f 18//34 21//34 23//34
f 21//34 24//34 23//34
f 24//34 25//34 23//34
f 25//34 18//34 23//34
f 19//35 18//35 26//35
f 18//35 25//35 26//35
f 25//35 27//35 26//35
f 27//35 19//35 26//35
f 22//36 19//36 28//36
f 19//36 27//36 28//36
f 27//36 29//36 28//36
f 29//36 22//36 28//36
f 27//37 25//37 30//37
f 25//37 24//37 30//37
f 24//37 29//37 30//37
f 29//37 27//37 30//37
f 21//38 22//38 31//38
f 22//38 29//38 31//38
f 29//38 24//38 31//38
f 24//38 21//38 31//38
o Cube_3.003_Cube_3.003_brownlips
v -0.915000 0.000000 -0.075000
v -0.965000 0.000000 -0.075000
v -0.940000 0.000000 -0.075000
v -0.915000 0.000000 -0.075000
v -0.965000 0.000000 -0.075000
v -0.915000 0.000000 -0.075000
v -0.915000 0.000000 -0.075000
v -0.915000 0.000000 -0.075000
v -0.940000 0.000000 -0.075000
v -0.965000 0.000000 -0.075000
v -0.965000 0.000000 -0.075000
v -0.965000 0.000000 -0.075000
v -0.940000 0.000000 -0.075000
v -0.940000 0.000000 -0.075000
vn 0.000000 0.000000 1.000000
usemtl brownlips
s 1
f 32//39 33//39 34//39
f 35//39 32//39 34//39
f 36//39 35//39 34//39
f 33//39 36//39 34//39
f 32//39 35//39 37//39
f 35//39 38//39 37//39
f 38//39 39//39 37//39
f 39//39 32//39 37//39
f 33//39 32//39 40//39
f 32//39 39//39 40//39
f 39//39 41//39 40//39
f 41//39 33//39 40//39
f 36//39 33//39 42//39
f 33//39 41//39 42//39
f 41//39 43//39 42//39
f 43//39 36//39 42//39
f 41//39 39//39 44//39
f 39//39 38//39 44//39
f 38//39 43//39 44//39
f 43//39 41//39 44//39
f 35//39 36//39 45//39
f 36//39 43//39 45//39
f 43//39 38//39 45//39
f 38//39 35//39 45//39
o Cube_2.003_Cube_2.003_brownlips
v 0.010250 -0.024750 0.090000
v 0.010250 -0.024750 0.090000
v 0.010250 -0.024750 0.090000
v 0.010250 -0.024750 0.090000
v 0.010250 -0.024750 0.090000
v 0.035000 -0.000000 0.090000
v 0.059750 0.024750 0.090000
v 0.059750 0.024750 0.090000
v 0.035000 -0.000000 0.090000
v 0.059750 0.024750 0.090000
v 0.035000 -0.000000 0.090000
v 0.059750 0.024750 0.090000
v 0.059750 0.024750 0.090000
v 0.035000 -0.000000 0.090000
vn 0.000000 0.000000 1.000000
vn 0.000000 0.000000 -1.000000
usemtl brownlips
s 1
f 46//40 47//40 48//40
f 49//40 46//40 48//40
f 50//40 49//40 48//40
f 47//40 50//40 48//40
f 46//40 49//40 51//40
f 49//41 52//41 51//41
f 52//40 53//40 51//40
f 53//40 46//40 51//40
f 47//40 46//40 54//40
f 46//41 53//41 54//41
f 53//40 55//40 54//40
f 55//40 47//40 54//40
f 50//40 47//40 56//40
f 47//41 55//41 56//41
f 55//40 57//40 56//40
f 57//40 50//40 56//40
f 55//40 53//40 58//40
f 53//40 52//40 58//40
f 52//40 57//40 58//40
f 57//40 55//40 58//40
f 49//40 50//40 59//40
f 50//41 57//41 59//41
f 57//40 52//40 59//40
f 52//40 49//40 59//40
o Pied_avant_gauche_Pied_avant_gauche_black
v -44.698429 -0.816834 19.660749
v -41.459709 -0.816834 17.804880
v -40.906059 -0.816834 18.358530
v -42.577110 -0.816835 21.782070
v -36.759270 35.183167 14.374898
v -39.379669 35.183167 18.584637
v -37.801338 17.183168 17.006302
v -37.404770 35.183167 13.729398
v -41.500992 35.183167 16.463318
v -41.527740 20.391148 16.490065
v -40.384380 10.576636 19.589342
v -39.922661 17.183168 14.884984
v -42.505699 10.576636 17.468021
v -36.110531 13.487077 13.194173
v -35.973591 22.671879 12.677725
v -35.650841 22.671879 13.000475
v -39.406422 20.391146 18.611383
vn 0.000000 -1.000000 -0.000000
vn 0.848631 0.028094 0.528240
vn 0.000000 1.000000 -0.000000
vn 0.000000 1.000000 -0.000003
vn 0.000000 1.000000 -0.000002
vn 0.520838 -0.152929 -0.839846
vn 0.892042 -0.121154 0.435410
vn -0.707103 0.002557 0.707106
vn -0.707105 0.002557 0.707104
vn -0.682287 0.262619 0.682287
vn -0.494799 -0.097820 -0.863485
vn -0.707106 0.000001 -0.707107
vn -0.707107 0.000000 -0.707107
vn -0.554973 0.024249 -0.831515
vn 0.863903 -0.151679 -0.480276
vn 0.634383 -0.441724 -0.634380
vn -0.655851 -0.011576 -0.754802
vn 0.700247 0.138963 -0.700245
vn 0.700247 0.138962 -0.700246
vn 0.765860 -0.024780 0.642530
vn 0.707107 -0.000001 0.707107
vn 0.707107 -0.000000 0.707107
vn 0.707105 -0.000001 0.707109
vn -0.707108 0.000000 -0.707106
vn -0.700189 0.139539 0.700189
vn -0.700189 0.139540 0.700189
vn -0.700189 0.139539 0.700188
vn -0.595041 -0.036273 -0.802876
vn 0.706214 -0.050239 -0.706213
vn 0.734382 -0.009493 0.678671
usemtl black
s 1
f 60//42 61//42 62//42
f 63//42 60//42 62//42
f 64//43 65//43 66//43
f 65//44 64//45 67//46
f 62//47 64//47 66//47
f 63//48 62//48 66//48
f 68//49 69//50 65//49
f 70//51 60//51 63//51
f 61//52 60//52 71//52
f 60//53 72//53 71//54
f 68//55 67//55 71//55
f 67//56 61//56 71//56
f 62//57 61//57 73//57
f 67//58 74//58 61//58
f 64//59 75//60 67//59
f 73//61 75//61 62//61
f 65//62 76//63 66//63
f 68//44 65//44 67//46
f 66//63 70//64 63//64
f 72//53 69//65 71//54
f 60//51 70//51 72//51
f 70//66 69//67 72//68
f 65//49 69//50 76//50
f 76//67 69//67 70//66
f 66//63 76//63 70//64
f 71//54 69//65 68//65
f 61//69 74//69 73//69
f 67//59 75//60 74//60
f 74//70 75//70 73//70
f 62//71 75//71 64//71
o Pied_avant_droit_Pied_avant_droit_black
v 42.577110 -0.817005 21.782431
v 40.721241 -0.817004 18.543711
v 41.274891 -0.817004 17.990061
v 44.698429 -0.817004 19.661110
v 37.291248 35.182995 13.843278
v 41.500992 35.182995 16.463678
v 39.922661 17.182999 14.885344
v 36.645748 35.182995 14.488777
v 39.379669 35.182995 18.584997
v 39.406422 20.390976 18.611744
v 42.505699 10.576467 17.468382
v 37.801338 17.182999 17.006662
v 40.384380 10.576467 19.589703
v 36.110531 13.486907 13.194531
v 35.594082 22.671707 13.057593
v 35.916828 22.671707 12.734845
v 41.527740 20.390978 16.490423
vn 0.000000 -1.000000 -0.000000
vn 0.528239 0.028094 -0.848631
vn 0.000000 1.000000 -0.000001
vn 0.000000 1.000000 0.000006
vn 0.000000 1.000000 0.000003
vn -0.839844 -0.152929 -0.520840
vn 0.435412 -0.121154 -0.892042
vn 0.707103 0.002557 0.707106
vn 0.707105 0.002557 0.707104
vn 0.682287 0.262620 0.682287
vn 0.682286 0.262620 0.682287
vn 0.682286 0.262620 0.682288
vn -0.863485 -0.097820 0.494798
vn -0.707106 -0.000001 0.707108
vn -0.707106 0.000000 0.707107
vn -0.831514 0.024249 0.554974
vn -0.480274 -0.151678 -0.863904
vn -0.634382 -0.441724 -0.634381
vn -0.754803 -0.011577 0.655850
vn -0.700245 0.138963 -0.700247
vn -0.700248 0.138963 -0.700244
vn 0.642530 -0.024779 -0.765860
vn 0.707107 0.000000 -0.707107
vn 0.707106 0.000000 -0.707107
vn 0.000000 1.000000 -0.000002
vn 0.707107 0.000001 -0.707107
vn -0.707106 -0.000000 0.707108
vn 0.700190 0.139539 0.700188
vn 0.700189 0.139540 0.700189
vn -0.802876 -0.036273 0.595042
vn -0.706215 -0.050239 -0.706213
vn 0.678671 -0.009493 -0.734381
usemtl black
s 1
f 77//72 78//72 79//72
f 80//72 77//72 79//72
f 81//73 82//73 83//73
f 82//74 81//75 84//76
f 79//77 81//77 83//77
f 80//78 79//78 83//78
f 85//79 86//80 82//79
f 87//81 77//82 80//83
f 78//84 77//84 88//84
f 77//85 89//85 88//86
f 85//87 84//87 88//87
f 84//88 78//88 88//88
f 79//89 78//89 90//89
f 84//90 91//90 78//90
f 81//91 92//92 84//91
f 90//93 92//93 79//93
f 82//94 93//94 83//95
f 85//96 82//74 84//76
f 83//95 87//97 80//97
f 89//85 86//98 88//86
f 77//82 87//81 89//81
f 87//99 86//100 89//99
f 82//79 86//80 93//80
f 93//100 86//100 87//99
f 83//95 93//94 87//97
f 88//86 86//98 85//85
f 78//101 91//101 90//101
f 84//91 92//92 91//92
f 91//102 92//102 90//102
f 79//103 92//103 81//103
o Etagère_du_haut_Etagère_du_haut_lighttannew
v 47.500000 34.999996 25.000008
v -47.500000 34.999996 25.000008
v 0.000000 35.000000 0.000008
v 47.500000 35.000004 -24.999992
v -47.500000 35.000004 -24.999992
v 47.500000 36.000000 0.000008
v 47.500000 37.000004 -24.999992
v 47.500000 36.999996 25.000008
v 0.000000 35.999996 25.000008
v -47.500000 36.999996 25.000008
v -47.500000 36.000000 0.000008
v -47.500000 37.000004 -24.999992
v 0.000000 37.000000 0.000008
v 0.000000 36.000004 -24.999992
vn 0.000000 -1.000000 -0.000000
vn 1.000000 0.000000 0.000000
vn 0.000000 0.000000 1.000000
vn -1.000000 0.000000 0.000000
vn 0.000000 1.000000 0.000000
vn 0.000000 0.000000 -1.000000
usemtl lighttannew
s 1
f 94//104 95//104 96//104
f 97//104 94//104 96//104
f 98//104 97//104 96//104
f 95//104 98//104 96//104
f 94//105 97//105 99//105
f 97//105 100//105 99//105
f 100//105 101//105 99//105
f 101//105 94//105 99//105
f 95//106 94//106 102//106
f 94//106 101//106 102//106
f 101//106 103//106 102//106
f 103//106 95//106 102//106
f 98//107 95//107 104//107
f 95//107 103//107 104//107
f 103//107 105//107 104//107
f 105//107 98//107 104//107
f 103//108 101//108 106//108
f 101//108 100//108 106//108
f 100//108 105//108 106//108
f 105//108 103//108 106//108
f 97//109 98//109 107//109
f 98//109 105//109 107//109
f 105//109 100//109 107//109
f 100//109 97//109 107//109
o Pied_arriere_gauche_Pied_arriere_gauche_black
v -42.577110 -0.816995 -21.782431
v -40.721241 -0.816996 -18.543711
v -41.274891 -0.816996 -17.990061
v -44.698429 -0.816996 -19.661110
v -37.291248 35.183002 -13.843263
v -41.500992 35.183002 -16.463663
v -39.922661 17.183002 -14.885336
v -36.645748 35.183002 -14.488762
v -39.379669 35.183002 -18.584982
v -39.406422 20.390984 -18.611736
v -42.505699 10.576474 -17.468378
v -37.801338 17.183002 -17.006659
v -40.384380 10.576474 -19.589699
v -36.110531 13.486913 -13.194527
v -35.594082 22.671711 -13.057585
v -35.916828 22.671711 -12.734836
v -41.527740 20.390982 -16.490416
vn 0.000000 -1.000000 -0.000000
vn -0.528239 0.028094 0.848631
vn 0.000000 1.000000 -0.000000
vn 0.000000 1.000000 -0.000001
vn 0.839844 -0.152930 0.520841
vn -0.435411 -0.121154 0.892042
vn -0.707103 0.002558 -0.707106
vn -0.707105 0.002557 -0.707104
vn -0.707104 0.002558 -0.707105
vn -0.682288 0.262620 -0.682286
vn -0.682288 0.262619 -0.682286
vn 0.863485 -0.097820 -0.494798
vn 0.707106 0.000000 -0.707107
vn 0.707106 0.000001 -0.707108
vn 0.831514 0.024249 -0.554974
vn 0.480274 -0.151679 0.863904
vn 0.634379 -0.441726 0.634383
vn 0.754803 -0.011577 -0.655850
vn 0.700247 0.138963 0.700246
vn 0.700248 0.138963 0.700244
vn -0.642529 -0.024780 0.765861
vn -0.707107 -0.000000 0.707106
vn -0.707107 -0.000000 0.707107
vn -0.707106 0.000001 0.707107
vn 0.707105 0.000000 -0.707108
vn -0.682287 0.262620 -0.682286
vn -0.700189 0.139540 -0.700189
vn -0.700189 0.139540 -0.700188
vn 0.707105 0.000000 -0.707109
vn 0.802876 -0.036273 -0.595041
vn 0.706215 -0.050239 0.706212
vn -0.678671 -0.009493 0.734381
usemtl black
s 1
f 108//110 109//110 110//110
f 111//110 108//110 110//110
f 112//111 113//111 114//111
f 113//112 112//113 115//113
f 110//114 112//114 114//114
f 111//115 110//115 114//115
f 116//116 117//117 113//118
f 118//119 108//120 111//120
f 109//121 108//121 119//121
f 108//122 120//122 119//123
f 116//124 115//124 119//124
f 115//125 109//125 119//125
f 110//126 109//126 121//126
f 115//127 122//127 109//127
f 112//128 123//129 115//128
f 121//130 123//130 110//130
f 113//131 124//131 114//132
f 116//112 113//112 115//113
f 114//132 118//133 111//133
f 120//122 117//134 119//123
f 108//120 118//119 120//135
f 118//136 117//137 120//136
f 113//118 117//117 124//117
f 124//137 117//137 118//136
f 114//132 124//131 118//133
f 119//123 117//134 116//138
f 109//139 122//139 121//139
f 115//128 123//129 122//129
f 122//140 123//140 121//140
f 110//141 123//141 112//141
