# Blender v2.74 (sub 0) OBJ File: ''
# www.blender.org
mtllib tableBasseBois.mtl
o Etagère_du_haut
v 47.500000 35.000000 25.000002
v -47.500000 35.000000 25.000002
v 0.000000 35.000000 0.000002
v 47.500000 35.000000 -24.999998
v -47.500000 35.000000 -24.999998
v 47.500000 36.000000 0.000002
v 47.500000 37.000000 -24.999998
v 47.500000 37.000000 25.000002
v 0.000000 36.000000 25.000002
v -47.500000 37.000000 25.000002
v -47.500000 36.000000 0.000002
v -47.500000 37.000000 -24.999998
v 0.000000 37.000000 0.000002
v 0.000000 36.000000 -24.999998
vn 0.000000 -1.000000 0.000000
vn 1.000000 0.000000 0.000000
vn 0.000000 0.000000 1.000000
vn -1.000000 0.000000 0.000000
vn 0.000000 1.000000 0.000000
vn 0.000000 0.000000 -1.000000
g Etagère_du_haut_Etagère_du_haut_lighttannew
usemtl lighttannew
s 1
f 1//1 2//1 3//1
f 4//1 1//1 3//1
f 5//1 4//1 3//1
f 2//1 5//1 3//1
s 2
f 1//2 4//2 6//2
f 4//2 7//2 6//2
f 7//2 8//2 6//2
f 8//2 1//2 6//2
s 4
f 2//3 1//3 9//3
f 1//3 8//3 9//3
f 8//3 10//3 9//3
f 10//3 2//3 9//3
s 2
f 5//4 2//4 11//4
f 2//4 10//4 11//4
f 10//4 12//4 11//4
f 12//4 5//4 11//4
s 1
f 10//5 8//5 13//5
f 8//5 7//5 13//5
f 7//5 12//5 13//5
f 12//5 10//5 13//5
s 4
f 4//6 5//6 14//6
f 5//6 12//6 14//6
f 12//6 7//6 14//6
f 7//6 4//6 14//6
o Etagère_du_bas
v 40.500000 8.999999 18.000000
v -40.500000 8.999999 18.000000
v 0.000000 9.000000 0.000000
v 40.500000 9.000001 -18.000000
v -40.500000 9.000001 -18.000000
v 40.500000 10.000000 0.000000
v 40.500000 11.000001 -18.000000
v 40.500000 10.999999 18.000000
v 0.000000 9.999999 18.000000
v -40.500000 10.999999 18.000000
v -40.500000 10.000000 0.000000
v -40.500000 11.000001 -18.000000
v 0.000000 11.000000 0.000000
v 0.000000 10.000001 -18.000000
vn 0.000000 -1.000000 -0.000000
vn 1.000000 0.000000 0.000000
vn 0.000000 0.000000 1.000000
vn -1.000000 0.000000 0.000000
vn 0.000000 1.000000 0.000000
vn 0.000000 0.000000 -1.000000
g Etagère_du_bas_Etagère_du_bas_lighttannew
usemtl lighttannew
s 1
f 15//7 16//7 17//7
f 18//7 15//7 17//7
f 19//7 18//7 17//7
f 16//7 19//7 17//7
s 2
f 15//8 18//8 20//8
f 18//8 21//8 20//8
f 21//8 22//8 20//8
f 22//8 15//8 20//8
s 4
f 16//9 15//9 23//9
f 15//9 22//9 23//9
f 22//9 24//9 23//9
f 24//9 16//9 23//9
s 2
f 19//10 16//10 25//10
f 16//10 24//10 25//10
f 24//10 26//10 25//10
f 26//10 19//10 25//10
s 1
f 24//11 22//11 27//11
f 22//11 21//11 27//11
f 21//11 26//11 27//11
f 26//11 24//11 27//11
s 4
f 18//12 19//12 28//12
f 19//12 26//12 28//12
f 26//12 21//12 28//12
f 21//12 18//12 28//12
o Pied_arriere_gauche
v -42.577110 -0.816999 -21.782431
v -40.721241 -0.816999 -18.543711
v -41.274891 -0.816999 -17.990061
v -44.698429 -0.816999 -19.661110
v -37.291248 35.182999 -13.843268
v -41.500992 35.182999 -16.463669
v -39.922661 17.183001 -14.885339
v -36.645748 35.182999 -14.488768
v -39.379669 35.182999 -18.584988
v -39.406422 20.390980 -18.611740
v -42.505699 10.576471 -17.468380
v -37.801338 17.183001 -17.006660
v -40.384380 10.576471 -19.589701
v -36.110531 13.486911 -13.194529
v -35.594082 22.671709 -13.057589
v -35.916828 22.671709 -12.734839
v -41.527740 20.390980 -16.490419
vn 0.000000 -1.000000 -0.000000
vn -0.528200 0.028100 0.848600
vn 0.000000 1.000000 -0.000000
vn 0.839800 -0.152900 0.520800
vn -0.435400 -0.121200 0.892000
vn -0.707100 0.002600 -0.707100
vn -0.682300 0.262600 -0.682300
vn 0.863500 -0.097800 -0.494800
vn 0.707100 0.000000 -0.707100
vn 0.831500 0.024200 -0.555000
vn 0.480300 -0.151700 0.863900
vn 0.634400 -0.441700 0.634400
vn 0.754800 -0.011600 -0.655900
vn 0.700200 0.139000 0.700200
vn 0.700300 0.139000 0.700200
vn -0.642500 -0.024800 0.765900
vn -0.707100 0.000000 0.707100
vn -0.700200 0.139500 -0.700200
vn 0.802900 -0.036300 -0.595000
vn 0.706200 -0.050200 0.706200
vn -0.678700 -0.009500 0.734400
g Pied_arriere_gauche_Pied_arriere_gauche_black
usemtl black
s 1
f 29//13 30//13 31//13
f 32//13 29//13 31//13
f 33//14 34//14 35//14
s 2
f 34//15 33//15 36//15
f 31//16 33//16 35//16
s 4
f 32//17 31//17 35//17
s 1
f 37//18 38//18 34//18
s 2
f 32//19 39//19 29//19
f 30//20 29//20 40//20
s 4
f 29//21 41//21 40//21
s 1
f 37//22 36//22 40//22
s 4
f 36//23 30//23 40//23
s 2
f 31//24 30//24 42//24
s 1
f 36//25 43//25 30//25
s 4
f 33//26 44//27 36//26
s 1
f 42//28 44//28 31//28
s 8
f 34//29 45//29 35//29
s 2
f 37//15 34//15 36//15
s 8
f 35//29 39//29 32//29
s 4
f 41//21 38//21 40//21
s 2
f 29//19 39//19 41//19
s 16
f 39//30 38//30 41//30
s 1
f 34//18 38//18 45//18
s 16
f 45//30 38//30 39//30
s 8
f 35//29 45//29 39//29
s 4
f 40//21 38//21 37//21
f 30//31 43//31 42//31
f 36//26 44//27 43//27
s 2
f 43//32 44//32 42//32
s 8
f 31//33 44//33 33//33
o Pied_arriere_droit
v 44.698429 -0.816999 -19.661110
v 41.459709 -0.816999 -17.805241
v 40.906059 -0.816999 -18.358891
v 42.577110 -0.816999 -21.782431
v 36.759270 35.182999 -14.375248
v 39.379669 35.182999 -18.584988
v 37.801338 17.183001 -17.006660
v 37.404770 35.182999 -13.729748
v 41.500992 35.182999 -16.463669
v 41.527740 20.390980 -16.490419
v 40.384380 10.576471 -19.589701
v 39.922661 17.183001 -14.885339
v 42.505699 10.576471 -17.468380
v 36.110531 13.486911 -13.194529
v 35.973591 22.671709 -12.678079
v 35.650841 22.671709 -13.000829
v 39.406422 20.390980 -18.611740
vn -0.000000 -1.000000 -0.000000
vn -0.848600 0.028100 -0.528200
vn 0.000000 1.000000 0.000000
vn -0.520800 -0.152900 0.839800
vn -0.892000 -0.121200 -0.435400
vn 0.707100 0.002600 -0.707100
vn 0.682300 0.262600 -0.682300
vn 0.494800 -0.097800 0.863500
vn 0.707100 0.000000 0.707100
vn 0.555000 0.024200 0.831500
vn -0.863900 -0.151700 0.480300
vn -0.634400 -0.441700 0.634400
vn 0.655900 -0.011600 0.754800
vn -0.700200 0.139000 0.700200
vn -0.765900 -0.024800 -0.642500
vn -0.707100 -0.000000 -0.707100
vn 0.700200 0.139500 -0.700200
vn 0.595000 -0.036300 0.802900
vn -0.706200 -0.050200 0.706200
vn -0.734400 -0.009500 -0.678700
g Pied_arriere_droit_Pied_arriere_droit_black
usemtl black
s 1
f 46//34 47//34 48//34
f 49//34 46//34 48//34
f 50//35 51//35 52//35
s 2
f 51//36 50//36 53//36
f 48//37 50//37 52//37
s 4
f 49//38 48//38 52//38
s 1
f 54//39 55//39 51//39
s 2
f 49//40 56//40 46//40
f 47//41 46//41 57//41
s 4
f 46//42 58//42 57//42
s 1
f 54//43 53//43 57//43
s 4
f 53//44 47//44 57//44
s 2
f 48//45 47//45 59//45
s 1
f 53//46 60//46 47//46
s 4
f 50//47 61//47 53//47
s 1
f 59//48 61//48 48//48
s 8
f 51//49 62//49 52//49
s 2
f 54//36 51//36 53//36
s 8
f 52//49 56//49 49//49
s 4
f 58//42 55//42 57//42
s 2
f 46//40 56//40 58//40
s 16
f 56//50 55//50 58//50
s 1
f 51//39 55//39 62//39
s 16
f 62//50 55//50 56//50
s 8
f 52//49 62//49 56//49
s 4
f 57//42 55//42 54//42
f 47//51 60//51 59//51
f 53//47 61//47 60//47
s 2
f 60//52 61//52 59//52
s 8
f 48//53 61//53 50//53
o Pied_avant_gauche
v -44.698429 -0.816831 19.660749
v -41.459709 -0.816831 17.804880
v -40.906059 -0.816831 18.358530
v -42.577110 -0.816831 21.782070
v -36.759270 35.183170 14.374892
v -39.379669 35.183170 18.584631
v -37.801338 17.183170 17.006300
v -37.404770 35.183170 13.729392
v -41.500992 35.183170 16.463312
v -41.527740 20.391150 16.490061
v -40.384380 10.576639 19.589340
v -39.922661 17.183170 14.884981
v -42.505699 10.576639 17.468019
v -36.110531 13.487079 13.194171
v -35.973591 22.671881 12.677721
v -35.650841 22.671881 13.000471
v -39.406422 20.391150 18.611380
vn -0.000000 -1.000000 -0.000000
vn 0.848600 0.028100 0.528200
vn 0.000000 1.000000 -0.000000
vn 0.520800 -0.152900 -0.839800
vn 0.892000 -0.121200 0.435400
vn -0.707100 0.002600 0.707100
vn -0.682300 0.262600 0.682300
vn -0.494800 -0.097800 -0.863500
vn -0.707100 0.000000 -0.707100
vn -0.555000 0.024200 -0.831500
vn 0.863900 -0.151700 -0.480300
vn 0.634400 -0.441700 -0.634400
vn -0.655900 -0.011600 -0.754800
vn 0.700200 0.139000 -0.700200
vn 0.765900 -0.024800 0.642500
vn 0.707100 -0.000000 0.707100
vn -0.700200 0.139500 0.700200
vn -0.595000 -0.036300 -0.802900
vn 0.706200 -0.050200 -0.706200
vn 0.734400 -0.009500 0.678700
g Pied_avant_gauche_Pied_avant_gauche_black
usemtl black
s 1
f 63//54 64//54 65//54
f 66//54 63//54 65//54
f 67//55 68//55 69//55
s 2
f 68//56 67//56 70//56
f 65//57 67//57 69//57
s 4
f 66//58 65//58 69//58
s 1
f 71//59 72//59 68//59
s 2
f 66//60 73//60 63//60
f 64//61 63//61 74//61
s 4
f 63//62 75//62 74//62
s 1
f 71//63 70//63 74//63
s 4
f 70//64 64//64 74//64
s 2
f 65//65 64//65 76//65
s 1
f 70//66 77//66 64//66
s 4
f 67//67 78//67 70//67
s 1
f 76//68 78//68 65//68
s 8
f 68//69 79//69 69//69
s 2
f 71//56 68//56 70//56
s 8
f 69//69 73//69 66//69
s 4
f 75//62 72//62 74//62
s 2
f 63//60 73//60 75//60
s 16
f 73//70 72//70 75//70
s 1
f 68//59 72//59 79//59
s 16
f 79//70 72//70 73//70
s 8
f 69//69 79//69 73//69
s 4
f 74//62 72//62 71//62
f 64//71 77//71 76//71
f 70//67 78//67 77//67
s 2
f 77//72 78//72 76//72
s 8
f 65//73 78//73 67//73
o Pied_avant_droit
v 42.577110 -0.817001 21.782431
v 40.721241 -0.817001 18.543711
v 41.274891 -0.817001 17.990061
v 44.698429 -0.817001 19.661110
v 37.291248 35.182999 13.843272
v 41.500992 35.182999 16.463673
v 39.922661 17.183001 14.885341
v 36.645748 35.182999 14.488771
v 39.379669 35.182999 18.584991
v 39.406422 20.390980 18.611740
v 42.505699 10.576469 17.468380
v 37.801338 17.183001 17.006660
v 40.384380 10.576469 19.589701
v 36.110531 13.486909 13.194530
v 35.594082 22.671709 13.057590
v 35.916828 22.671709 12.734841
v 41.527740 20.390980 16.490419
vn 0.000000 -1.000000 -0.000000
vn 0.528200 0.028100 -0.848600
vn 0.000000 1.000000 0.000000
vn -0.839800 -0.152900 -0.520800
vn 0.435400 -0.121200 -0.892000
vn 0.707100 0.002600 0.707100
vn 0.682300 0.262600 0.682300
vn -0.863500 -0.097800 0.494800
vn -0.707100 0.000000 0.707100
vn -0.831500 0.024200 0.555000
vn -0.480300 -0.151700 -0.863900
vn -0.634400 -0.441700 -0.634400
vn -0.754800 -0.011600 0.655800
vn -0.700200 0.139000 -0.700200
vn 0.642500 -0.024800 -0.765900
vn 0.707100 0.000000 -0.707100
vn 0.700200 0.139500 0.700200
vn -0.802900 -0.036300 0.595000
vn -0.706200 -0.050200 -0.706200
vn 0.678700 -0.009500 -0.734400
g Pied_avant_droit_Pied_avant_droit_black
usemtl black
s 1
f 80//74 81//74 82//74
f 83//74 80//74 82//74
f 84//75 85//75 86//75
s 2
f 85//76 84//76 87//76
f 82//77 84//77 86//77
s 4
f 83//78 82//78 86//78
s 1
f 88//79 89//79 85//79
s 2
f 83//80 90//80 80//80
f 81//81 80//81 91//81
s 4
f 80//82 92//82 91//82
s 1
f 88//83 87//83 91//83
s 4
f 87//84 81//84 91//84
s 2
f 82//85 81//85 93//85
s 1
f 87//86 94//86 81//86
s 4
f 84//87 95//87 87//87
s 1
f 93//88 95//88 82//88
s 8
f 85//89 96//89 86//89
s 2
f 88//76 85//76 87//76
s 8
f 86//89 90//89 83//89
s 4
f 92//82 89//82 91//82
s 2
f 80//80 90//80 92//80
s 16
f 90//90 89//90 92//90
s 1
f 85//79 89//79 96//79
s 16
f 96//90 89//90 90//90
s 8
f 86//89 96//89 90//89
s 4
f 91//82 89//82 88//82
f 81//91 94//91 93//91
f 87//87 95//87 94//87
s 2
f 94//92 95//92 93//92
s 8
f 82//93 95//93 84//93
o Cube_3.003
v -0.915000 0.000000 -0.075000
v -0.965000 0.000000 -0.075000
v -0.940000 0.000000 -0.075000
v -0.915000 0.000000 -0.075000
v -0.965000 0.000000 -0.075000
v -0.915000 0.000000 -0.075000
v -0.915000 0.000000 -0.075000
v -0.915000 0.000000 -0.075000
v -0.940000 0.000000 -0.075000
v -0.965000 0.000000 -0.075000
v -0.965000 0.000000 -0.075000
v -0.965000 0.000000 -0.075000
v -0.940000 0.000000 -0.075000
v -0.940000 0.000000 -0.075000
vn 0.000000 0.000000 1.000000
g Cube_3.003_Cube_3.003_brownlips
usemtl brownlips
s 1
f 97//94 98//94 99//94
s 2
f 100//94 97//94 99//94
s 1
f 101//94 100//94 99//94
s 2
f 98//94 101//94 99//94
s 1
f 97//94 100//94 102//94
s 2
f 100//94 103//94 102//94
s 1
f 103//94 104//94 102//94
s 2
f 104//94 97//94 102//94
f 98//94 97//94 105//94
s 1
f 97//94 104//94 105//94
s 2
f 104//94 106//94 105//94
s 1
f 106//94 98//94 105//94
f 101//94 98//94 107//94
s 2
f 98//94 106//94 107//94
s 1
f 106//94 108//94 107//94
s 2
f 108//94 101//94 107//94
s 1
f 106//94 104//94 109//94
s 2
f 104//94 103//94 109//94
s 1
f 103//94 108//94 109//94
s 2
f 108//94 106//94 109//94
f 100//94 101//94 110//94
s 1
f 101//94 108//94 110//94
s 2
f 108//94 103//94 110//94
s 1
f 103//94 100//94 110//94
o Cube_2.003
v 0.010250 -0.024750 0.090000
v 0.010250 -0.024750 0.090000
v 0.010250 -0.024750 0.090000
v 0.010250 -0.024750 0.090000
v 0.010250 -0.024750 0.090000
v 0.035000 -0.000000 0.090000
v 0.059750 0.024750 0.090000
v 0.059750 0.024750 0.090000
v 0.035000 -0.000000 0.090000
v 0.059750 0.024750 0.090000
v 0.035000 -0.000000 0.090000
v 0.059750 0.024750 0.090000
v 0.059750 0.024750 0.090000
v 0.035000 -0.000000 0.090000
vn 0.000000 0.000000 1.000000
vn 0.000000 0.000000 -1.000000
g Cube_2.003_Cube_2.003_brownlips
usemtl brownlips
s 1
f 111//95 112//95 113//95
s 2
f 114//95 111//95 113//95
s 1
f 115//95 114//95 113//95
s 2
f 112//95 115//95 113//95
s 1
f 111//95 114//95 116//95
s 2
f 114//96 117//96 116//96
s 1
f 117//95 118//95 116//95
s 2
f 118//95 111//95 116//95
f 112//95 111//95 119//95
s 1
f 111//96 118//96 119//96
s 2
f 118//95 120//95 119//95
s 1
f 120//95 112//95 119//95
f 115//95 112//95 121//95
s 2
f 112//96 120//96 121//96
s 1
f 120//95 122//95 121//95
s 2
f 122//95 115//95 121//95
s 1
f 120//95 118//95 123//95
s 2
f 118//95 117//95 123//95
s 1
f 117//95 122//95 123//95
s 2
f 122//95 120//95 123//95
f 114//95 115//95 124//95
s 1
f 115//96 122//96 124//96
s 2
f 122//95 117//95 124//95
s 1
f 117//95 114//95 124//95
