# Blender v2.69 (sub 0) OBJ File: 'projetVide.blend'
# www.blender.org
mtllib tabouretPiano.mtl
o Couche:OBJECT005.001
v -3.155520 -0.400001 3.400010
v -5.940190 -4.400001 4.776789
v -5.840190 -4.400001 4.949999
v -3.255520 -0.400001 3.226800
v -3.255520 -3.200001 3.226799
v -5.666990 -6.400001 4.849998
v -5.766990 -6.400001 4.676789
v -3.155520 -3.200001 3.400010
v -6.200000 -6.400001 4.926789
v -6.100000 -6.400001 5.099998
vn 0.507218 0.793908 0.335276
vn -0.929289 0.297281 -0.219153
vn -0.274819 0.297281 0.914365
vn -0.036744 0.793908 -0.606891
vn 0.307413 -0.278176 -0.909970
vn 0.586749 -0.712699 0.384350
vn -0.039491 -0.712699 -0.700308
vn 0.941771 -0.278176 0.188757
vn -0.824152 -0.536180 -0.182226
vn -0.254250 -0.536180 0.804865
usemtl brownskn
s 1
f 1//1 2//2 3//3
f 1//1 4//4 2//2
f 5//5 6//6 7//7
f 5//5 8//8 6//6
f 4//4 9//9 2//2
f 4//4 7//7 9//9
f 4//4 5//5 7//7
f 8//8 10//10 6//6
f 8//8 3//3 10//10
f 8//8 1//1 3//3
f 9//9 3//3 2//2
f 9//9 10//10 3//3
f 1//1 5//5 4//4
f 1//1 8//8 5//5
f 10//10 7//7 6//6
f 10//10 9//9 7//7
o Couche:OBJECT002.001
v -3.700000 -3.200001 2.799999
v -2.800000 -3.200001 3.799999
v -3.400000 -3.200001 3.500000
v -2.100000 -3.200001 3.500000
v -1.800000 -3.200001 2.799999
v -2.100000 -3.200001 2.200000
v -2.800000 -3.200000 1.899999
v -3.400000 -3.200001 2.200000
v -2.100000 2.799999 2.200001
v -2.100000 2.799999 3.500000
v -1.800000 2.799999 2.800000
v -2.800000 2.799999 3.800000
v -3.400000 2.799999 3.500000
v -3.700000 2.799999 2.800000
v -3.400000 2.799999 2.200001
v -2.800000 2.800000 1.900000
vn -0.781457 -0.623524 -0.022950
vn -0.022950 -0.623524 0.781457
vn -0.560686 -0.637257 0.528672
vn 0.547807 -0.632282 0.547807
vn 0.781457 -0.623524 -0.022950
vn 0.528672 -0.637257 -0.560686
vn -0.022950 -0.623524 -0.781457
vn -0.541917 -0.642354 -0.541917
vn 0.528672 0.637257 -0.560686
vn 0.547807 0.632282 0.547807
vn 0.781457 0.623524 -0.022950
vn -0.022950 0.623524 0.781457
vn -0.560686 0.637257 0.528672
vn -0.781457 0.623524 -0.022950
vn -0.541917 0.642354 -0.541917
vn -0.022950 0.623524 -0.781457
usemtl brownskn
s 1
f 11//11 12//12 13//13
f 11//11 14//14 12//12
f 11//11 15//15 14//14
f 11//11 16//16 15//15
f 11//11 17//17 16//16
f 11//11 18//18 17//17
f 19//19 20//20 21//21
f 19//19 22//22 20//20
f 19//19 23//23 22//22
f 19//19 24//24 23//23
f 19//19 25//25 24//24
f 19//19 26//26 25//25
f 16//16 26//26 19//19
f 16//16 17//17 26//26
f 15//15 19//19 21//21
f 15//15 16//16 19//19
f 14//14 21//21 20//20
f 14//14 15//15 21//21
f 12//12 20//20 22//22
f 12//12 14//14 20//20
f 13//13 22//22 23//23
f 13//13 12//12 22//22
f 11//11 23//23 24//24
f 11//11 13//13 23//23
f 18//18 24//24 25//25
f 18//18 11//11 24//24
f 17//17 25//25 26//26
f 17//17 18//18 25//25
o Couche:OBJECT004.001
v -2.600000 -4.400000 -0.900001
v -2.800000 -0.400000 2.200000
v -2.600000 -0.400000 2.200000
v -2.800000 -4.400000 -0.900001
v -2.800000 -6.400000 -0.700001
v -2.600000 -3.200001 2.200000
v -2.800000 -3.200001 2.200000
v -2.600000 -6.400000 -0.700001
v -2.800000 -6.400000 -1.200001
v -2.600000 -6.400000 -1.200001
vn 0.654439 0.297281 -0.695181
vn -0.543962 0.793908 0.271615
vn 0.543962 0.793908 0.271615
vn -0.654439 0.297281 -0.695181
vn -0.626240 -0.712699 0.315928
vn 0.634358 -0.278176 0.721213
vn -0.634358 -0.278176 0.721213
vn 0.626240 -0.712699 0.315928
vn -0.569903 -0.536180 -0.622608
vn 0.569903 -0.536180 -0.622608
usemtl brownskn
s 1
f 27//27 28//28 29//29
f 27//27 30//30 28//28
f 31//31 32//32 33//33
f 31//31 34//34 32//32
f 35//35 28//28 30//30
f 35//35 33//33 28//28
f 35//35 31//31 33//33
f 36//36 32//32 34//34
f 36//36 29//29 32//32
f 36//36 27//27 29//29
f 30//30 36//36 35//35
f 30//30 27//27 36//36
f 28//28 32//32 29//29
f 28//28 33//33 32//32
f 34//34 35//35 36//36
f 34//34 31//31 35//35
o Couche:OBJECT000.001
v -5.900000 2.800000 1.000000
v -5.900000 2.799999 4.600000
v -6.400000 2.799999 2.800000
v -4.600000 2.799999 5.900001
v -2.800000 2.799999 6.400001
v -1.000000 2.799999 5.900001
v 0.300000 2.799999 4.600000
v 0.800000 2.799999 2.800000
v 0.300000 2.800000 1.000000
v -1.000000 2.800000 -0.300000
v -2.800000 2.800000 -0.800000
v -4.600000 2.800000 -0.300000
v -1.000000 3.100000 -0.300000
v 0.800000 3.099999 2.800000
v 0.300000 3.100000 1.000000
v 0.300000 3.099999 4.600000
v -1.000000 3.099999 5.900001
v -2.800000 3.099999 6.400001
v -4.600000 3.099999 5.900001
v -5.900000 3.099999 4.600000
v -6.400000 3.099999 2.800000
v -5.900000 3.100000 1.000000
v -4.600000 3.100000 -0.300000
v -2.800000 3.100000 -0.800000
vn -0.653340 -0.654073 -0.381176
vn -0.653340 -0.654073 0.381176
vn -0.758599 -0.651509 0.000000
vn -0.381176 -0.654073 0.653340
vn 0.000000 -0.651509 0.758599
vn 0.381176 -0.654073 0.653340
vn 0.653340 -0.654073 0.381176
vn 0.758599 -0.651509 0.000000
vn 0.653340 -0.654073 -0.381176
vn 0.381176 -0.654073 -0.653340
vn 0.000000 -0.651509 -0.758599
vn -0.381176 -0.654073 -0.653340
vn 0.381176 0.654073 -0.653340
vn 0.758599 0.651509 0.000000
vn 0.653340 0.654073 -0.381176
vn 0.653340 0.654073 0.381176
vn 0.381176 0.654073 0.653340
vn 0.000000 0.651509 0.758599
vn -0.381176 0.654073 0.653340
vn -0.653340 0.654073 0.381176
vn -0.758599 0.651509 0.000000
vn -0.653340 0.654073 -0.381176
vn -0.381176 0.654073 -0.653340
vn 0.000000 0.651509 -0.758599
usemtl brownskn
s 1
f 37//37 38//38 39//39
f 37//37 40//40 38//38
f 37//37 41//41 40//40
f 37//37 42//42 41//41
f 37//37 43//43 42//42
f 37//37 44//44 43//43
f 37//37 45//45 44//44
f 37//37 46//46 45//45
f 37//37 47//47 46//46
f 37//37 48//48 47//47
f 49//49 50//50 51//51
f 49//49 52//52 50//50
f 49//49 53//53 52//52
f 49//49 54//54 53//53
f 49//49 55//55 54//54
f 49//49 56//56 55//55
f 49//49 57//57 56//56
f 49//49 58//58 57//57
f 49//49 59//59 58//58
f 49//49 60//60 59//59
f 46//46 60//60 49//49
f 46//46 47//47 60//60
f 45//45 49//49 51//51
f 45//45 46//46 49//49
f 44//44 51//51 50//50
f 44//44 45//45 51//51
f 43//43 50//50 52//52
f 43//43 44//44 50//50
f 42//42 52//52 53//53
f 42//42 43//43 52//52
f 41//41 53//53 54//54
f 41//41 42//42 53//53
f 40//40 54//54 55//55
f 40//40 41//41 54//54
f 38//38 55//55 56//56
f 38//38 40//40 55//55
f 39//39 56//56 57//57
f 39//39 38//38 56//56
f 37//37 57//57 58//58
f 37//37 39//39 57//57
f 48//48 58//58 59//59
f 48//48 37//37 58//58
f 47//47 59//59 60//60
f 47//47 48//48 59//59
o Couche:OBJECT003.001
v 0.362450 -4.400001 4.986599
v -2.222240 -0.400001 3.263400
v -2.322240 -0.400001 3.436610
v 0.462450 -4.400001 4.813389
v 0.289230 -6.400001 4.713388
v -2.322240 -3.200001 3.436610
v -2.222240 -3.200001 3.263400
v 0.189230 -6.400001 4.886599
v 0.722240 -6.400001 4.963388
v 0.622240 -6.400001 5.136599
vn 0.274850 0.297281 0.914365
vn 0.036744 0.793908 -0.606891
vn -0.507218 0.793908 0.335276
vn 0.929289 0.297281 -0.219153
vn 0.039491 -0.712699 -0.700308
vn -0.941771 -0.278176 0.188757
vn -0.307413 -0.278176 -0.909970
vn -0.586718 -0.712699 0.384350
vn 0.824152 -0.536180 -0.182226
vn 0.254250 -0.536180 0.804865
usemtl brownskn
s 1
f 61//61 62//62 63//63
f 61//61 64//64 62//62
f 65//65 66//66 67//67
f 65//65 68//68 66//66
f 69//69 62//62 64//64
f 69//69 67//67 62//62
f 69//69 65//65 67//67
f 70//70 66//66 68//68
f 70//70 63//63 66//66
f 70//70 61//61 63//63
f 64//64 70//70 69//69
f 64//64 61//61 70//70
f 62//62 66//66 63//63
f 62//62 67//67 66//66
f 68//68 69//69 70//70
f 68//68 65//65 69//69
o Couche:OBJECT001.001
v -5.727780 3.100000 1.100001
v -5.727780 3.099999 4.500000
v -6.200000 3.099999 2.800000
v -4.500000 3.099999 5.727780
v -2.800000 3.099999 6.200000
v -1.100000 3.099999 5.727780
v 0.127780 3.099999 4.500000
v 0.600000 3.099999 2.800000
v 0.127780 3.100000 1.100001
v -1.100000 3.100000 -0.127779
v -2.800000 3.100000 -0.600000
v -4.500000 3.100000 -0.127779
v -1.100000 3.300000 -0.127779
v 0.600000 3.299999 2.800000
v 0.127780 3.300000 1.100001
v 0.127780 3.299999 4.500000
v -1.100000 3.299999 5.727780
v -2.800000 3.299999 6.200000
v -4.500000 3.299999 5.727780
v -5.727780 3.299999 4.500000
v -6.200000 3.299999 2.800000
v -5.727780 3.300000 1.100001
v -4.500000 3.300000 -0.127779
v -2.800000 3.300000 -0.599999
vn -0.653340 -0.654073 -0.381176
vn -0.653340 -0.654073 0.381176
vn -0.758599 -0.651509 0.000000
vn -0.381176 -0.654073 0.653340
vn 0.000000 -0.651509 0.758599
vn 0.381176 -0.654073 0.653340
vn 0.653340 -0.654073 0.381176
vn 0.758599 -0.651509 0.000000
vn 0.653340 -0.654073 -0.381176
vn 0.381176 -0.654073 -0.653340
vn 0.000000 -0.651509 -0.758599
vn -0.381176 -0.654073 -0.653340
vn 0.381176 0.654073 -0.653340
vn 0.758599 0.651509 0.000000
vn 0.653340 0.654073 -0.381176
vn 0.653340 0.654073 0.381176
vn 0.381176 0.654073 0.653340
vn 0.000000 0.651509 0.758599
vn -0.381176 0.654073 0.653340
vn -0.653340 0.654073 0.381176
vn -0.758599 0.651509 0.000000
vn -0.653340 0.654073 -0.381176
vn -0.381176 0.654073 -0.653340
vn 0.000000 0.651509 -0.758599
usemtl flbrown
s 1
f 71//71 72//72 73//73
f 71//71 74//74 72//72
f 71//71 75//75 74//74
f 71//71 76//76 75//75
f 71//71 77//77 76//76
f 71//71 78//78 77//77
f 71//71 79//79 78//78
f 71//71 80//80 79//79
f 71//71 81//81 80//80
f 71//71 82//82 81//81
f 83//83 84//84 85//85
f 83//83 86//86 84//84
f 83//83 87//87 86//86
f 83//83 88//88 87//87
f 83//83 89//89 88//88
f 83//83 90//90 89//89
f 83//83 91//91 90//90
f 83//83 92//92 91//91
f 83//83 93//93 92//92
f 83//83 94//94 93//93
f 80//80 94//94 83//83
f 80//80 81//81 94//94
f 79//79 83//83 85//85
f 79//79 80//80 83//83
f 78//78 85//85 84//84
f 78//78 79//79 85//85
f 77//77 84//84 86//86
f 77//77 78//78 84//84
f 76//76 86//86 87//87
f 76//76 77//77 86//86
f 75//75 87//87 88//88
f 75//75 76//76 87//87
f 74//74 88//88 89//89
f 74//74 75//75 88//88
f 72//72 89//89 90//90
f 72//72 74//74 89//89
f 73//73 90//90 91//91
f 73//73 72//72 90//90
f 71//71 91//91 92//92
f 71//71 73//73 91//91
f 82//82 92//92 93//93
f 82//82 71//71 92//92
f 81//81 93//93 94//94
f 81//81 82//82 93//93
